%TF.GenerationSoftware,KiCad,Pcbnew,(6.0.2)*%
%TF.CreationDate,2022-03-20T02:44:05+03:00*%
%TF.ProjectId,NE555_PWM_Driver,4e453535-355f-4505-974d-5f4472697665,rev?*%
%TF.SameCoordinates,Original*%
%TF.FileFunction,Legend,Top*%
%TF.FilePolarity,Positive*%
%FSLAX46Y46*%
G04 Gerber Fmt 4.6, Leading zero omitted, Abs format (unit mm)*
G04 Created by KiCad (PCBNEW (6.0.2)) date 2022-03-20 02:44:05*
%MOMM*%
%LPD*%
G01*
G04 APERTURE LIST*
%ADD10C,0.150000*%
%ADD11C,0.120000*%
G04 APERTURE END LIST*
D10*
X158452380Y-121761904D02*
X157452380Y-121761904D01*
X157452380Y-121523809D01*
X157500000Y-121380952D01*
X157595238Y-121285714D01*
X157690476Y-121238095D01*
X157880952Y-121190476D01*
X158023809Y-121190476D01*
X158214285Y-121238095D01*
X158309523Y-121285714D01*
X158404761Y-121380952D01*
X158452380Y-121523809D01*
X158452380Y-121761904D01*
X158404761Y-120380952D02*
X158452380Y-120476190D01*
X158452380Y-120666666D01*
X158404761Y-120761904D01*
X158309523Y-120809523D01*
X157928571Y-120809523D01*
X157833333Y-120761904D01*
X157785714Y-120666666D01*
X157785714Y-120476190D01*
X157833333Y-120380952D01*
X157928571Y-120333333D01*
X158023809Y-120333333D01*
X158119047Y-120809523D01*
X158404761Y-119952380D02*
X158452380Y-119857142D01*
X158452380Y-119666666D01*
X158404761Y-119571428D01*
X158309523Y-119523809D01*
X158261904Y-119523809D01*
X158166666Y-119571428D01*
X158119047Y-119666666D01*
X158119047Y-119809523D01*
X158071428Y-119904761D01*
X157976190Y-119952380D01*
X157928571Y-119952380D01*
X157833333Y-119904761D01*
X157785714Y-119809523D01*
X157785714Y-119666666D01*
X157833333Y-119571428D01*
X158452380Y-119095238D02*
X157785714Y-119095238D01*
X157452380Y-119095238D02*
X157500000Y-119142857D01*
X157547619Y-119095238D01*
X157500000Y-119047619D01*
X157452380Y-119095238D01*
X157547619Y-119095238D01*
X157785714Y-118190476D02*
X158595238Y-118190476D01*
X158690476Y-118238095D01*
X158738095Y-118285714D01*
X158785714Y-118380952D01*
X158785714Y-118523809D01*
X158738095Y-118619047D01*
X158404761Y-118190476D02*
X158452380Y-118285714D01*
X158452380Y-118476190D01*
X158404761Y-118571428D01*
X158357142Y-118619047D01*
X158261904Y-118666666D01*
X157976190Y-118666666D01*
X157880952Y-118619047D01*
X157833333Y-118571428D01*
X157785714Y-118476190D01*
X157785714Y-118285714D01*
X157833333Y-118190476D01*
X157785714Y-117714285D02*
X158452380Y-117714285D01*
X157880952Y-117714285D02*
X157833333Y-117666666D01*
X157785714Y-117571428D01*
X157785714Y-117428571D01*
X157833333Y-117333333D01*
X157928571Y-117285714D01*
X158452380Y-117285714D01*
X158404761Y-116428571D02*
X158452380Y-116523809D01*
X158452380Y-116714285D01*
X158404761Y-116809523D01*
X158309523Y-116857142D01*
X157928571Y-116857142D01*
X157833333Y-116809523D01*
X157785714Y-116714285D01*
X157785714Y-116523809D01*
X157833333Y-116428571D01*
X157928571Y-116380952D01*
X158023809Y-116380952D01*
X158119047Y-116857142D01*
X158452380Y-115523809D02*
X157452380Y-115523809D01*
X158404761Y-115523809D02*
X158452380Y-115619047D01*
X158452380Y-115809523D01*
X158404761Y-115904761D01*
X158357142Y-115952380D01*
X158261904Y-116000000D01*
X157976190Y-116000000D01*
X157880952Y-115952380D01*
X157833333Y-115904761D01*
X157785714Y-115809523D01*
X157785714Y-115619047D01*
X157833333Y-115523809D01*
X157928571Y-113952380D02*
X157976190Y-113809523D01*
X158023809Y-113761904D01*
X158119047Y-113714285D01*
X158261904Y-113714285D01*
X158357142Y-113761904D01*
X158404761Y-113809523D01*
X158452380Y-113904761D01*
X158452380Y-114285714D01*
X157452380Y-114285714D01*
X157452380Y-113952380D01*
X157500000Y-113857142D01*
X157547619Y-113809523D01*
X157642857Y-113761904D01*
X157738095Y-113761904D01*
X157833333Y-113809523D01*
X157880952Y-113857142D01*
X157928571Y-113952380D01*
X157928571Y-114285714D01*
X157785714Y-113380952D02*
X158452380Y-113142857D01*
X157785714Y-112904761D02*
X158452380Y-113142857D01*
X158690476Y-113238095D01*
X158738095Y-113285714D01*
X158785714Y-113380952D01*
X158357142Y-112523809D02*
X158404761Y-112476190D01*
X158452380Y-112523809D01*
X158404761Y-112571428D01*
X158357142Y-112523809D01*
X158452380Y-112523809D01*
X157833333Y-112523809D02*
X157880952Y-112476190D01*
X157928571Y-112523809D01*
X157880952Y-112571428D01*
X157833333Y-112523809D01*
X157928571Y-112523809D01*
X158452380Y-111285714D02*
X157452380Y-111285714D01*
X158166666Y-110952380D01*
X157452380Y-110619047D01*
X158452380Y-110619047D01*
X158404761Y-109761904D02*
X158452380Y-109857142D01*
X158452380Y-110047619D01*
X158404761Y-110142857D01*
X158309523Y-110190476D01*
X157928571Y-110190476D01*
X157833333Y-110142857D01*
X157785714Y-110047619D01*
X157785714Y-109857142D01*
X157833333Y-109761904D01*
X157928571Y-109714285D01*
X158023809Y-109714285D01*
X158119047Y-110190476D01*
X158452380Y-109285714D02*
X157452380Y-109285714D01*
X158452380Y-108857142D02*
X157928571Y-108857142D01*
X157833333Y-108904761D01*
X157785714Y-109000000D01*
X157785714Y-109142857D01*
X157833333Y-109238095D01*
X157880952Y-109285714D01*
X158452380Y-108380952D02*
X157785714Y-108380952D01*
X157880952Y-108380952D02*
X157833333Y-108333333D01*
X157785714Y-108238095D01*
X157785714Y-108095238D01*
X157833333Y-108000000D01*
X157928571Y-107952380D01*
X158452380Y-107952380D01*
X157928571Y-107952380D02*
X157833333Y-107904761D01*
X157785714Y-107809523D01*
X157785714Y-107666666D01*
X157833333Y-107571428D01*
X157928571Y-107523809D01*
X158452380Y-107523809D01*
X158404761Y-106666666D02*
X158452380Y-106761904D01*
X158452380Y-106952380D01*
X158404761Y-107047619D01*
X158309523Y-107095238D01*
X157928571Y-107095238D01*
X157833333Y-107047619D01*
X157785714Y-106952380D01*
X157785714Y-106761904D01*
X157833333Y-106666666D01*
X157928571Y-106619047D01*
X158023809Y-106619047D01*
X158119047Y-107095238D01*
X157785714Y-106333333D02*
X157785714Y-105952380D01*
X157452380Y-106190476D02*
X158309523Y-106190476D01*
X158404761Y-106142857D01*
X158452380Y-106047619D01*
X158452380Y-105952380D01*
X157928571Y-104857142D02*
X157928571Y-104523809D01*
X158452380Y-104380952D02*
X158452380Y-104857142D01*
X157452380Y-104857142D01*
X157452380Y-104380952D01*
X158452380Y-103952380D02*
X157785714Y-103952380D01*
X157880952Y-103952380D02*
X157833333Y-103904761D01*
X157785714Y-103809523D01*
X157785714Y-103666666D01*
X157833333Y-103571428D01*
X157928571Y-103523809D01*
X158452380Y-103523809D01*
X157928571Y-103523809D02*
X157833333Y-103476190D01*
X157785714Y-103380952D01*
X157785714Y-103238095D01*
X157833333Y-103142857D01*
X157928571Y-103095238D01*
X158452380Y-103095238D01*
X158452380Y-102619047D02*
X157785714Y-102619047D01*
X157976190Y-102619047D02*
X157880952Y-102571428D01*
X157833333Y-102523809D01*
X157785714Y-102428571D01*
X157785714Y-102333333D01*
X158404761Y-101619047D02*
X158452380Y-101714285D01*
X158452380Y-101904761D01*
X158404761Y-102000000D01*
X158309523Y-102047619D01*
X157928571Y-102047619D01*
X157833333Y-102000000D01*
X157785714Y-101904761D01*
X157785714Y-101714285D01*
X157833333Y-101619047D01*
X157928571Y-101571428D01*
X158023809Y-101571428D01*
X158119047Y-102047619D01*
X158452380Y-100380952D02*
X157452380Y-100380952D01*
X157452380Y-100142857D01*
X157500000Y-100000000D01*
X157595238Y-99904761D01*
X157690476Y-99857142D01*
X157880952Y-99809523D01*
X158023809Y-99809523D01*
X158214285Y-99857142D01*
X158309523Y-99904761D01*
X158404761Y-100000000D01*
X158452380Y-100142857D01*
X158452380Y-100380952D01*
X158452380Y-99238095D02*
X158404761Y-99333333D01*
X158357142Y-99380952D01*
X158261904Y-99428571D01*
X157976190Y-99428571D01*
X157880952Y-99380952D01*
X157833333Y-99333333D01*
X157785714Y-99238095D01*
X157785714Y-99095238D01*
X157833333Y-99000000D01*
X157880952Y-98952380D01*
X157976190Y-98904761D01*
X158261904Y-98904761D01*
X158357142Y-98952380D01*
X158404761Y-99000000D01*
X158452380Y-99095238D01*
X158452380Y-99238095D01*
X157785714Y-98047619D02*
X158595238Y-98047619D01*
X158690476Y-98095238D01*
X158738095Y-98142857D01*
X158785714Y-98238095D01*
X158785714Y-98380952D01*
X158738095Y-98476190D01*
X158404761Y-98047619D02*
X158452380Y-98142857D01*
X158452380Y-98333333D01*
X158404761Y-98428571D01*
X158357142Y-98476190D01*
X158261904Y-98523809D01*
X157976190Y-98523809D01*
X157880952Y-98476190D01*
X157833333Y-98428571D01*
X157785714Y-98333333D01*
X157785714Y-98142857D01*
X157833333Y-98047619D01*
X157404761Y-98476190D02*
X157500000Y-98428571D01*
X157547619Y-98333333D01*
X157547619Y-98238095D01*
X157500000Y-98142857D01*
X157404761Y-98095238D01*
X158452380Y-97142857D02*
X157928571Y-97142857D01*
X157833333Y-97190476D01*
X157785714Y-97285714D01*
X157785714Y-97476190D01*
X157833333Y-97571428D01*
X158404761Y-97142857D02*
X158452380Y-97238095D01*
X158452380Y-97476190D01*
X158404761Y-97571428D01*
X158309523Y-97619047D01*
X158214285Y-97619047D01*
X158119047Y-97571428D01*
X158071428Y-97476190D01*
X158071428Y-97238095D01*
X158023809Y-97142857D01*
X157785714Y-96666666D02*
X158452380Y-96666666D01*
X157880952Y-96666666D02*
X157833333Y-96619047D01*
X157785714Y-96523809D01*
X157785714Y-96380952D01*
X157833333Y-96285714D01*
X157928571Y-96238095D01*
X158452380Y-96238095D01*
X155452380Y-121738095D02*
X154452380Y-121738095D01*
X155452380Y-121166666D01*
X154452380Y-121166666D01*
X154928571Y-120690476D02*
X154928571Y-120357142D01*
X155452380Y-120214285D02*
X155452380Y-120690476D01*
X154452380Y-120690476D01*
X154452380Y-120214285D01*
X154452380Y-119309523D02*
X154452380Y-119785714D01*
X154928571Y-119833333D01*
X154880952Y-119785714D01*
X154833333Y-119690476D01*
X154833333Y-119452380D01*
X154880952Y-119357142D01*
X154928571Y-119309523D01*
X155023809Y-119261904D01*
X155261904Y-119261904D01*
X155357142Y-119309523D01*
X155404761Y-119357142D01*
X155452380Y-119452380D01*
X155452380Y-119690476D01*
X155404761Y-119785714D01*
X155357142Y-119833333D01*
X154452380Y-118357142D02*
X154452380Y-118833333D01*
X154928571Y-118880952D01*
X154880952Y-118833333D01*
X154833333Y-118738095D01*
X154833333Y-118500000D01*
X154880952Y-118404761D01*
X154928571Y-118357142D01*
X155023809Y-118309523D01*
X155261904Y-118309523D01*
X155357142Y-118357142D01*
X155404761Y-118404761D01*
X155452380Y-118500000D01*
X155452380Y-118738095D01*
X155404761Y-118833333D01*
X155357142Y-118880952D01*
X154452380Y-117404761D02*
X154452380Y-117880952D01*
X154928571Y-117928571D01*
X154880952Y-117880952D01*
X154833333Y-117785714D01*
X154833333Y-117547619D01*
X154880952Y-117452380D01*
X154928571Y-117404761D01*
X155023809Y-117357142D01*
X155261904Y-117357142D01*
X155357142Y-117404761D01*
X155404761Y-117452380D01*
X155452380Y-117547619D01*
X155452380Y-117785714D01*
X155404761Y-117880952D01*
X155357142Y-117928571D01*
X155452380Y-116166666D02*
X154452380Y-116166666D01*
X154452380Y-115785714D01*
X154500000Y-115690476D01*
X154547619Y-115642857D01*
X154642857Y-115595238D01*
X154785714Y-115595238D01*
X154880952Y-115642857D01*
X154928571Y-115690476D01*
X154976190Y-115785714D01*
X154976190Y-116166666D01*
X154452380Y-115261904D02*
X155452380Y-115023809D01*
X154738095Y-114833333D01*
X155452380Y-114642857D01*
X154452380Y-114404761D01*
X155452380Y-114023809D02*
X154452380Y-114023809D01*
X155166666Y-113690476D01*
X154452380Y-113357142D01*
X155452380Y-113357142D01*
X155452380Y-112119047D02*
X154452380Y-112119047D01*
X154452380Y-111880952D01*
X154500000Y-111738095D01*
X154595238Y-111642857D01*
X154690476Y-111595238D01*
X154880952Y-111547619D01*
X155023809Y-111547619D01*
X155214285Y-111595238D01*
X155309523Y-111642857D01*
X155404761Y-111738095D01*
X155452380Y-111880952D01*
X155452380Y-112119047D01*
X155452380Y-111119047D02*
X154785714Y-111119047D01*
X154976190Y-111119047D02*
X154880952Y-111071428D01*
X154833333Y-111023809D01*
X154785714Y-110928571D01*
X154785714Y-110833333D01*
X155452380Y-110500000D02*
X154785714Y-110500000D01*
X154452380Y-110500000D02*
X154500000Y-110547619D01*
X154547619Y-110500000D01*
X154500000Y-110452380D01*
X154452380Y-110500000D01*
X154547619Y-110500000D01*
X154785714Y-110119047D02*
X155452380Y-109880952D01*
X154785714Y-109642857D01*
X155404761Y-108880952D02*
X155452380Y-108976190D01*
X155452380Y-109166666D01*
X155404761Y-109261904D01*
X155309523Y-109309523D01*
X154928571Y-109309523D01*
X154833333Y-109261904D01*
X154785714Y-109166666D01*
X154785714Y-108976190D01*
X154833333Y-108880952D01*
X154928571Y-108833333D01*
X155023809Y-108833333D01*
X155119047Y-109309523D01*
X155452380Y-108404761D02*
X154785714Y-108404761D01*
X154976190Y-108404761D02*
X154880952Y-108357142D01*
X154833333Y-108309523D01*
X154785714Y-108214285D01*
X154785714Y-108119047D01*
X162880952Y-89452380D02*
X162309523Y-89452380D01*
X162595238Y-89452380D02*
X162595238Y-88452380D01*
X162500000Y-88595238D01*
X162404761Y-88690476D01*
X162309523Y-88738095D01*
X163309523Y-89452380D02*
X163309523Y-88452380D01*
X163404761Y-89071428D02*
X163690476Y-89452380D01*
X163690476Y-88785714D02*
X163309523Y-89166666D01*
X162250000Y-75250000D02*
G75*
G03*
X162250000Y-75250000I-1000000J0D01*
G01*
X177880952Y-78452380D02*
X177309523Y-78452380D01*
X177595238Y-78452380D02*
X177595238Y-77452380D01*
X177500000Y-77595238D01*
X177404761Y-77690476D01*
X177309523Y-77738095D01*
X178309523Y-78452380D02*
X178309523Y-77452380D01*
X178404761Y-78071428D02*
X178690476Y-78452380D01*
X178690476Y-77785714D02*
X178309523Y-78166666D01*
X177880952Y-71452380D02*
X177309523Y-71452380D01*
X177595238Y-71452380D02*
X177595238Y-70452380D01*
X177500000Y-70595238D01*
X177404761Y-70690476D01*
X177309523Y-70738095D01*
X178309523Y-71452380D02*
X178309523Y-70452380D01*
X178404761Y-71071428D02*
X178690476Y-71452380D01*
X178690476Y-70785714D02*
X178309523Y-71166666D01*
X190583333Y-70750000D02*
X190488095Y-70702380D01*
X190345238Y-70702380D01*
X190202380Y-70750000D01*
X190107142Y-70845238D01*
X190059523Y-70940476D01*
X190011904Y-71130952D01*
X190011904Y-71273809D01*
X190059523Y-71464285D01*
X190107142Y-71559523D01*
X190202380Y-71654761D01*
X190345238Y-71702380D01*
X190440476Y-71702380D01*
X190583333Y-71654761D01*
X190630952Y-71607142D01*
X190630952Y-71273809D01*
X190440476Y-71273809D01*
X191630952Y-71702380D02*
X191297619Y-71226190D01*
X191059523Y-71702380D02*
X191059523Y-70702380D01*
X191440476Y-70702380D01*
X191535714Y-70750000D01*
X191583333Y-70797619D01*
X191630952Y-70892857D01*
X191630952Y-71035714D01*
X191583333Y-71130952D01*
X191535714Y-71178571D01*
X191440476Y-71226190D01*
X191059523Y-71226190D01*
X192059523Y-71178571D02*
X192392857Y-71178571D01*
X192535714Y-71702380D02*
X192059523Y-71702380D01*
X192059523Y-70702380D01*
X192535714Y-70702380D01*
X192964285Y-71178571D02*
X193297619Y-71178571D01*
X193440476Y-71702380D02*
X192964285Y-71702380D01*
X192964285Y-70702380D01*
X193440476Y-70702380D01*
X193869047Y-71702380D02*
X193869047Y-70702380D01*
X194440476Y-71702380D01*
X194440476Y-70702380D01*
X196452380Y-85142857D02*
X195976190Y-85476190D01*
X196452380Y-85714285D02*
X195452380Y-85714285D01*
X195452380Y-85333333D01*
X195500000Y-85238095D01*
X195547619Y-85190476D01*
X195642857Y-85142857D01*
X195785714Y-85142857D01*
X195880952Y-85190476D01*
X195928571Y-85238095D01*
X195976190Y-85333333D01*
X195976190Y-85714285D01*
X195928571Y-84714285D02*
X195928571Y-84380952D01*
X196452380Y-84238095D02*
X196452380Y-84714285D01*
X195452380Y-84714285D01*
X195452380Y-84238095D01*
X196452380Y-83809523D02*
X195452380Y-83809523D01*
X195452380Y-83571428D01*
X195500000Y-83428571D01*
X195595238Y-83333333D01*
X195690476Y-83285714D01*
X195880952Y-83238095D01*
X196023809Y-83238095D01*
X196214285Y-83285714D01*
X196309523Y-83333333D01*
X196404761Y-83428571D01*
X196452380Y-83571428D01*
X196452380Y-83809523D01*
%TO.C,J1*%
X183671666Y-124512380D02*
X183671666Y-125226666D01*
X183624047Y-125369523D01*
X183528809Y-125464761D01*
X183385952Y-125512380D01*
X183290714Y-125512380D01*
X184671666Y-125512380D02*
X184100238Y-125512380D01*
X184385952Y-125512380D02*
X184385952Y-124512380D01*
X184290714Y-124655238D01*
X184195476Y-124750476D01*
X184100238Y-124798095D01*
%TO.C,D4*%
X196492380Y-82508095D02*
X195492380Y-82508095D01*
X195492380Y-82270000D01*
X195540000Y-82127142D01*
X195635238Y-82031904D01*
X195730476Y-81984285D01*
X195920952Y-81936666D01*
X196063809Y-81936666D01*
X196254285Y-81984285D01*
X196349523Y-82031904D01*
X196444761Y-82127142D01*
X196492380Y-82270000D01*
X196492380Y-82508095D01*
X195825714Y-81079523D02*
X196492380Y-81079523D01*
X195444761Y-81317619D02*
X196159047Y-81555714D01*
X196159047Y-80936666D01*
%TO.C,R2*%
X163583333Y-91452380D02*
X163250000Y-90976190D01*
X163011904Y-91452380D02*
X163011904Y-90452380D01*
X163392857Y-90452380D01*
X163488095Y-90500000D01*
X163535714Y-90547619D01*
X163583333Y-90642857D01*
X163583333Y-90785714D01*
X163535714Y-90880952D01*
X163488095Y-90928571D01*
X163392857Y-90976190D01*
X163011904Y-90976190D01*
X163964285Y-90547619D02*
X164011904Y-90500000D01*
X164107142Y-90452380D01*
X164345238Y-90452380D01*
X164440476Y-90500000D01*
X164488095Y-90547619D01*
X164535714Y-90642857D01*
X164535714Y-90738095D01*
X164488095Y-90880952D01*
X163916666Y-91452380D01*
X164535714Y-91452380D01*
%TO.C,R4*%
X179913333Y-83322380D02*
X179580000Y-82846190D01*
X179341904Y-83322380D02*
X179341904Y-82322380D01*
X179722857Y-82322380D01*
X179818095Y-82370000D01*
X179865714Y-82417619D01*
X179913333Y-82512857D01*
X179913333Y-82655714D01*
X179865714Y-82750952D01*
X179818095Y-82798571D01*
X179722857Y-82846190D01*
X179341904Y-82846190D01*
X180770476Y-82655714D02*
X180770476Y-83322380D01*
X180532380Y-82274761D02*
X180294285Y-82989047D01*
X180913333Y-82989047D01*
%TO.C,D3*%
X196492380Y-75508095D02*
X195492380Y-75508095D01*
X195492380Y-75270000D01*
X195540000Y-75127142D01*
X195635238Y-75031904D01*
X195730476Y-74984285D01*
X195920952Y-74936666D01*
X196063809Y-74936666D01*
X196254285Y-74984285D01*
X196349523Y-75031904D01*
X196444761Y-75127142D01*
X196492380Y-75270000D01*
X196492380Y-75508095D01*
X195492380Y-74603333D02*
X195492380Y-73984285D01*
X195873333Y-74317619D01*
X195873333Y-74174761D01*
X195920952Y-74079523D01*
X195968571Y-74031904D01*
X196063809Y-73984285D01*
X196301904Y-73984285D01*
X196397142Y-74031904D01*
X196444761Y-74079523D01*
X196492380Y-74174761D01*
X196492380Y-74460476D01*
X196444761Y-74555714D01*
X196397142Y-74603333D01*
%TO.C,D1*%
X179261904Y-91702380D02*
X179261904Y-90702380D01*
X179500000Y-90702380D01*
X179642857Y-90750000D01*
X179738095Y-90845238D01*
X179785714Y-90940476D01*
X179833333Y-91130952D01*
X179833333Y-91273809D01*
X179785714Y-91464285D01*
X179738095Y-91559523D01*
X179642857Y-91654761D01*
X179500000Y-91702380D01*
X179261904Y-91702380D01*
X180785714Y-91702380D02*
X180214285Y-91702380D01*
X180500000Y-91702380D02*
X180500000Y-90702380D01*
X180404761Y-90845238D01*
X180309523Y-90940476D01*
X180214285Y-90988095D01*
X174658095Y-89352380D02*
X174658095Y-88352380D01*
X175229523Y-89352380D02*
X174800952Y-88780952D01*
X175229523Y-88352380D02*
X174658095Y-88923809D01*
%TO.C,U1*%
X163718095Y-75042380D02*
X163718095Y-75851904D01*
X163765714Y-75947142D01*
X163813333Y-75994761D01*
X163908571Y-76042380D01*
X164099047Y-76042380D01*
X164194285Y-75994761D01*
X164241904Y-75947142D01*
X164289523Y-75851904D01*
X164289523Y-75042380D01*
X165289523Y-76042380D02*
X164718095Y-76042380D01*
X165003809Y-76042380D02*
X165003809Y-75042380D01*
X164908571Y-75185238D01*
X164813333Y-75280476D01*
X164718095Y-75328095D01*
%TO.C,Q1*%
X166154761Y-104872619D02*
X166059523Y-104825000D01*
X165964285Y-104729761D01*
X165821428Y-104586904D01*
X165726190Y-104539285D01*
X165630952Y-104539285D01*
X165678571Y-104777380D02*
X165583333Y-104729761D01*
X165488095Y-104634523D01*
X165440476Y-104444047D01*
X165440476Y-104110714D01*
X165488095Y-103920238D01*
X165583333Y-103825000D01*
X165678571Y-103777380D01*
X165869047Y-103777380D01*
X165964285Y-103825000D01*
X166059523Y-103920238D01*
X166107142Y-104110714D01*
X166107142Y-104444047D01*
X166059523Y-104634523D01*
X165964285Y-104729761D01*
X165869047Y-104777380D01*
X165678571Y-104777380D01*
X167059523Y-104777380D02*
X166488095Y-104777380D01*
X166773809Y-104777380D02*
X166773809Y-103777380D01*
X166678571Y-103920238D01*
X166583333Y-104015476D01*
X166488095Y-104063095D01*
%TO.C,R1*%
X189833333Y-106452380D02*
X189500000Y-105976190D01*
X189261904Y-106452380D02*
X189261904Y-105452380D01*
X189642857Y-105452380D01*
X189738095Y-105500000D01*
X189785714Y-105547619D01*
X189833333Y-105642857D01*
X189833333Y-105785714D01*
X189785714Y-105880952D01*
X189738095Y-105928571D01*
X189642857Y-105976190D01*
X189261904Y-105976190D01*
X190785714Y-106452380D02*
X190214285Y-106452380D01*
X190500000Y-106452380D02*
X190500000Y-105452380D01*
X190404761Y-105595238D01*
X190309523Y-105690476D01*
X190214285Y-105738095D01*
%TO.C,C1*%
X156357142Y-82166666D02*
X156404761Y-82214285D01*
X156452380Y-82357142D01*
X156452380Y-82452380D01*
X156404761Y-82595238D01*
X156309523Y-82690476D01*
X156214285Y-82738095D01*
X156023809Y-82785714D01*
X155880952Y-82785714D01*
X155690476Y-82738095D01*
X155595238Y-82690476D01*
X155500000Y-82595238D01*
X155452380Y-82452380D01*
X155452380Y-82357142D01*
X155500000Y-82214285D01*
X155547619Y-82166666D01*
X156452380Y-81214285D02*
X156452380Y-81785714D01*
X156452380Y-81500000D02*
X155452380Y-81500000D01*
X155595238Y-81595238D01*
X155690476Y-81690476D01*
X155738095Y-81785714D01*
%TO.C,J2*%
X169671666Y-124512380D02*
X169671666Y-125226666D01*
X169624047Y-125369523D01*
X169528809Y-125464761D01*
X169385952Y-125512380D01*
X169290714Y-125512380D01*
X170100238Y-124607619D02*
X170147857Y-124560000D01*
X170243095Y-124512380D01*
X170481190Y-124512380D01*
X170576428Y-124560000D01*
X170624047Y-124607619D01*
X170671666Y-124702857D01*
X170671666Y-124798095D01*
X170624047Y-124940952D01*
X170052619Y-125512380D01*
X170671666Y-125512380D01*
%TO.C,D2*%
X179011904Y-86702380D02*
X179011904Y-85702380D01*
X179250000Y-85702380D01*
X179392857Y-85750000D01*
X179488095Y-85845238D01*
X179535714Y-85940476D01*
X179583333Y-86130952D01*
X179583333Y-86273809D01*
X179535714Y-86464285D01*
X179488095Y-86559523D01*
X179392857Y-86654761D01*
X179250000Y-86702380D01*
X179011904Y-86702380D01*
X179964285Y-85797619D02*
X180011904Y-85750000D01*
X180107142Y-85702380D01*
X180345238Y-85702380D01*
X180440476Y-85750000D01*
X180488095Y-85797619D01*
X180535714Y-85892857D01*
X180535714Y-85988095D01*
X180488095Y-86130952D01*
X179916666Y-86702380D01*
X180535714Y-86702380D01*
X184818095Y-88552380D02*
X184818095Y-87552380D01*
X185389523Y-88552380D02*
X184960952Y-87980952D01*
X185389523Y-87552380D02*
X184818095Y-88123809D01*
%TO.C,R3*%
X179913333Y-76322380D02*
X179580000Y-75846190D01*
X179341904Y-76322380D02*
X179341904Y-75322380D01*
X179722857Y-75322380D01*
X179818095Y-75370000D01*
X179865714Y-75417619D01*
X179913333Y-75512857D01*
X179913333Y-75655714D01*
X179865714Y-75750952D01*
X179818095Y-75798571D01*
X179722857Y-75846190D01*
X179341904Y-75846190D01*
X180246666Y-75322380D02*
X180865714Y-75322380D01*
X180532380Y-75703333D01*
X180675238Y-75703333D01*
X180770476Y-75750952D01*
X180818095Y-75798571D01*
X180865714Y-75893809D01*
X180865714Y-76131904D01*
X180818095Y-76227142D01*
X180770476Y-76274761D01*
X180675238Y-76322380D01*
X180389523Y-76322380D01*
X180294285Y-76274761D01*
X180246666Y-76227142D01*
D11*
%TO.C,J1*%
X189145000Y-118000000D02*
X178865000Y-118000000D01*
X189145000Y-124060000D02*
X189145000Y-115940000D01*
X189145000Y-124060000D02*
X178865000Y-124060000D01*
X182475000Y-118784000D02*
X182534000Y-118726000D01*
X178865000Y-124060000D02*
X178865000Y-115940000D01*
X180395000Y-121275000D02*
X180454000Y-121216000D01*
X189145000Y-122000000D02*
X178865000Y-122000000D01*
X182645000Y-119024000D02*
X182739000Y-118931000D01*
X189385000Y-115700000D02*
X187385000Y-115700000D01*
X189145000Y-115940000D02*
X178865000Y-115940000D01*
X180190000Y-121069000D02*
X180284000Y-120976000D01*
X189385000Y-117940000D02*
X189385000Y-115700000D01*
X188029000Y-120789000D02*
G75*
G03*
X188028953Y-119210911I-1483995J789000D01*
G01*
X187334000Y-118516000D02*
G75*
G03*
X186515617Y-118319550I-788998J-1483995D01*
G01*
X185061000Y-119211000D02*
G75*
G03*
X185061047Y-120789089I1483995J-789000D01*
G01*
X185756000Y-121484000D02*
G75*
G03*
X187334089Y-121483953I789000J1483995D01*
G01*
X186545000Y-118320000D02*
G75*
G03*
X185756288Y-118516648I-2J-1679991D01*
G01*
X183145000Y-120000000D02*
G75*
G03*
X183145000Y-120000000I-1680000J0D01*
G01*
%TO.C,D4*%
X193625000Y-79210000D02*
X190535000Y-79210000D01*
X190535170Y-79210000D02*
G75*
G03*
X192080462Y-84760000I1544830J-2560000D01*
G01*
X192079538Y-84760000D02*
G75*
G03*
X193624830Y-79210000I462J2990000D01*
G01*
X194580000Y-81770000D02*
G75*
G03*
X194580000Y-81770000I-2500000J0D01*
G01*
%TO.C,R2*%
X160480000Y-92620000D02*
X167020000Y-92620000D01*
X167020000Y-89880000D02*
X160480000Y-89880000D01*
X167790000Y-91250000D02*
X167020000Y-91250000D01*
X167020000Y-92620000D02*
X167020000Y-89880000D01*
X160480000Y-89880000D02*
X160480000Y-92620000D01*
X159710000Y-91250000D02*
X160480000Y-91250000D01*
%TO.C,R4*%
X176040000Y-80500000D02*
X176810000Y-80500000D01*
X183350000Y-81870000D02*
X183350000Y-79130000D01*
X184120000Y-80500000D02*
X183350000Y-80500000D01*
X176810000Y-81870000D02*
X183350000Y-81870000D01*
X176810000Y-79130000D02*
X176810000Y-81870000D01*
X183350000Y-79130000D02*
X176810000Y-79130000D01*
%TO.C,D3*%
X193625000Y-72210000D02*
X190535000Y-72210000D01*
X190535170Y-72210000D02*
G75*
G03*
X192080462Y-77760000I1544830J-2560000D01*
G01*
X192079538Y-77760000D02*
G75*
G03*
X193624830Y-72210000I462J2990000D01*
G01*
X194580000Y-74770000D02*
G75*
G03*
X194580000Y-74770000I-2500000J0D01*
G01*
%TO.C,D1*%
X178060000Y-89530000D02*
X178060000Y-92470000D01*
X176260000Y-91000000D02*
X177280000Y-91000000D01*
X178180000Y-89530000D02*
X178180000Y-92470000D01*
X177280000Y-89530000D02*
X177280000Y-92470000D01*
X177280000Y-92470000D02*
X182720000Y-92470000D01*
X182720000Y-89530000D02*
X177280000Y-89530000D01*
X178300000Y-89530000D02*
X178300000Y-92470000D01*
X182720000Y-92470000D02*
X182720000Y-89530000D01*
X183740000Y-91000000D02*
X182720000Y-91000000D01*
%TO.C,U1*%
X163480000Y-76590000D02*
G75*
G03*
X165480000Y-76590000I1000000J0D01*
G01*
X161830000Y-86870000D02*
X167130000Y-86870000D01*
X163480000Y-76590000D02*
X161830000Y-76590000D01*
X167130000Y-76590000D02*
X165480000Y-76590000D01*
X161830000Y-76590000D02*
X161830000Y-86870000D01*
X167130000Y-86870000D02*
X167130000Y-76590000D01*
%TO.C,Q1*%
X171370000Y-103325000D02*
X171370000Y-98684000D01*
X164399000Y-103325000D02*
X164399000Y-101815000D01*
X171370000Y-98684000D02*
X161130000Y-98684000D01*
X161130000Y-103325000D02*
X161130000Y-98684000D01*
X171370000Y-103325000D02*
X161130000Y-103325000D01*
X171370000Y-101815000D02*
X161130000Y-101815000D01*
X168100000Y-103325000D02*
X168100000Y-101815000D01*
%TO.C,R1*%
X194121000Y-107620000D02*
X199121000Y-107620000D01*
X178900000Y-110400000D02*
X194100000Y-110400000D01*
X209120000Y-101880000D02*
X209120000Y-106120000D01*
X194121000Y-100380000D02*
X194121000Y-107620000D01*
X199121000Y-101880000D02*
X199121000Y-106120000D01*
X199121000Y-106120000D02*
X209120000Y-106120000D01*
X199121000Y-101880000D02*
X209120000Y-101880000D01*
X178900000Y-97600000D02*
X194100000Y-97600000D01*
X194100000Y-97600000D02*
X194100000Y-110400000D01*
X178900000Y-97600000D02*
X178900000Y-110400000D01*
X199121000Y-100380000D02*
X199121000Y-107620000D01*
X194121000Y-100380000D02*
X199121000Y-100380000D01*
%TO.C,C1*%
X154630000Y-80370000D02*
X154695000Y-80370000D01*
X154630000Y-77130000D02*
X154695000Y-77130000D01*
X154630000Y-80370000D02*
X154630000Y-77130000D01*
X156805000Y-80370000D02*
X156870000Y-80370000D01*
X156870000Y-80370000D02*
X156870000Y-77130000D01*
X156805000Y-77130000D02*
X156870000Y-77130000D01*
%TO.C,J2*%
X164865000Y-124060000D02*
X164865000Y-115940000D01*
X175145000Y-124060000D02*
X164865000Y-124060000D01*
X175145000Y-118000000D02*
X164865000Y-118000000D01*
X175145000Y-122000000D02*
X164865000Y-122000000D01*
X166190000Y-121069000D02*
X166284000Y-120976000D01*
X168645000Y-119024000D02*
X168739000Y-118931000D01*
X168475000Y-118784000D02*
X168534000Y-118726000D01*
X175385000Y-117940000D02*
X175385000Y-115700000D01*
X175145000Y-124060000D02*
X175145000Y-115940000D01*
X166395000Y-121275000D02*
X166454000Y-121216000D01*
X175385000Y-115700000D02*
X173385000Y-115700000D01*
X175145000Y-115940000D02*
X164865000Y-115940000D01*
X173334000Y-118516000D02*
G75*
G03*
X172515617Y-118319550I-788998J-1483995D01*
G01*
X171061000Y-119211000D02*
G75*
G03*
X171061047Y-120789089I1483995J-789000D01*
G01*
X172545000Y-118320000D02*
G75*
G03*
X171756288Y-118516648I-2J-1679991D01*
G01*
X174029000Y-120789000D02*
G75*
G03*
X174028953Y-119210911I-1483995J789000D01*
G01*
X171756000Y-121484000D02*
G75*
G03*
X173334089Y-121483953I789000J1483995D01*
G01*
X169145000Y-120000000D02*
G75*
G03*
X169145000Y-120000000I-1680000J0D01*
G01*
%TO.C,D2*%
X182720000Y-87470000D02*
X182720000Y-84530000D01*
X177280000Y-84530000D02*
X177280000Y-87470000D01*
X183740000Y-86000000D02*
X182720000Y-86000000D01*
X181940000Y-87470000D02*
X181940000Y-84530000D01*
X182720000Y-84530000D02*
X177280000Y-84530000D01*
X181820000Y-87470000D02*
X181820000Y-84530000D01*
X176260000Y-86000000D02*
X177280000Y-86000000D01*
X177280000Y-87470000D02*
X182720000Y-87470000D01*
X181700000Y-87470000D02*
X181700000Y-84530000D01*
%TO.C,R3*%
X176810000Y-72130000D02*
X176810000Y-74870000D01*
X183350000Y-72130000D02*
X176810000Y-72130000D01*
X176040000Y-73500000D02*
X176810000Y-73500000D01*
X183350000Y-74870000D02*
X183350000Y-72130000D01*
X176810000Y-74870000D02*
X183350000Y-74870000D01*
X184120000Y-73500000D02*
X183350000Y-73500000D01*
%TD*%
M02*
