%TF.GenerationSoftware,KiCad,Pcbnew,(6.0.2)*%
%TF.CreationDate,2022-03-20T03:02:45+03:00*%
%TF.ProjectId,NE555_PWM_Driver,4e453535-355f-4505-974d-5f4472697665,rev?*%
%TF.SameCoordinates,Original*%
%TF.FileFunction,Legend,Bot*%
%TF.FilePolarity,Positive*%
%FSLAX46Y46*%
G04 Gerber Fmt 4.6, Leading zero omitted, Abs format (unit mm)*
G04 Created by KiCad (PCBNEW (6.0.2)) date 2022-03-20 03:02:45*
%MOMM*%
%LPD*%
G01*
G04 APERTURE LIST*
%ADD10C,0.150000*%
G04 APERTURE END LIST*
D10*
X178904761Y-71476190D02*
X176904761Y-71476190D01*
X176904761Y-71952380D01*
X177000000Y-72238095D01*
X177190476Y-72428571D01*
X177380952Y-72523809D01*
X177761904Y-72619047D01*
X178047619Y-72619047D01*
X178428571Y-72523809D01*
X178619047Y-72428571D01*
X178809523Y-72238095D01*
X178904761Y-71952380D01*
X178904761Y-71476190D01*
X178809523Y-74238095D02*
X178904761Y-74047619D01*
X178904761Y-73666666D01*
X178809523Y-73476190D01*
X178619047Y-73380952D01*
X177857142Y-73380952D01*
X177666666Y-73476190D01*
X177571428Y-73666666D01*
X177571428Y-74047619D01*
X177666666Y-74238095D01*
X177857142Y-74333333D01*
X178047619Y-74333333D01*
X178238095Y-73380952D01*
X178809523Y-75095238D02*
X178904761Y-75285714D01*
X178904761Y-75666666D01*
X178809523Y-75857142D01*
X178619047Y-75952380D01*
X178523809Y-75952380D01*
X178333333Y-75857142D01*
X178238095Y-75666666D01*
X178238095Y-75380952D01*
X178142857Y-75190476D01*
X177952380Y-75095238D01*
X177857142Y-75095238D01*
X177666666Y-75190476D01*
X177571428Y-75380952D01*
X177571428Y-75666666D01*
X177666666Y-75857142D01*
X178904761Y-76809523D02*
X177571428Y-76809523D01*
X176904761Y-76809523D02*
X177000000Y-76714285D01*
X177095238Y-76809523D01*
X177000000Y-76904761D01*
X176904761Y-76809523D01*
X177095238Y-76809523D01*
X177571428Y-78619047D02*
X179190476Y-78619047D01*
X179380952Y-78523809D01*
X179476190Y-78428571D01*
X179571428Y-78238095D01*
X179571428Y-77952380D01*
X179476190Y-77761904D01*
X178809523Y-78619047D02*
X178904761Y-78428571D01*
X178904761Y-78047619D01*
X178809523Y-77857142D01*
X178714285Y-77761904D01*
X178523809Y-77666666D01*
X177952380Y-77666666D01*
X177761904Y-77761904D01*
X177666666Y-77857142D01*
X177571428Y-78047619D01*
X177571428Y-78428571D01*
X177666666Y-78619047D01*
X177571428Y-79571428D02*
X178904761Y-79571428D01*
X177761904Y-79571428D02*
X177666666Y-79666666D01*
X177571428Y-79857142D01*
X177571428Y-80142857D01*
X177666666Y-80333333D01*
X177857142Y-80428571D01*
X178904761Y-80428571D01*
X178809523Y-82142857D02*
X178904761Y-81952380D01*
X178904761Y-81571428D01*
X178809523Y-81380952D01*
X178619047Y-81285714D01*
X177857142Y-81285714D01*
X177666666Y-81380952D01*
X177571428Y-81571428D01*
X177571428Y-81952380D01*
X177666666Y-82142857D01*
X177857142Y-82238095D01*
X178047619Y-82238095D01*
X178238095Y-81285714D01*
X178904761Y-83952380D02*
X176904761Y-83952380D01*
X178809523Y-83952380D02*
X178904761Y-83761904D01*
X178904761Y-83380952D01*
X178809523Y-83190476D01*
X178714285Y-83095238D01*
X178523809Y-83000000D01*
X177952380Y-83000000D01*
X177761904Y-83095238D01*
X177666666Y-83190476D01*
X177571428Y-83380952D01*
X177571428Y-83761904D01*
X177666666Y-83952380D01*
X177857142Y-87095238D02*
X177952380Y-87380952D01*
X178047619Y-87476190D01*
X178238095Y-87571428D01*
X178523809Y-87571428D01*
X178714285Y-87476190D01*
X178809523Y-87380952D01*
X178904761Y-87190476D01*
X178904761Y-86428571D01*
X176904761Y-86428571D01*
X176904761Y-87095238D01*
X177000000Y-87285714D01*
X177095238Y-87380952D01*
X177285714Y-87476190D01*
X177476190Y-87476190D01*
X177666666Y-87380952D01*
X177761904Y-87285714D01*
X177857142Y-87095238D01*
X177857142Y-86428571D01*
X177571428Y-88238095D02*
X178904761Y-88714285D01*
X177571428Y-89190476D02*
X178904761Y-88714285D01*
X179380952Y-88523809D01*
X179476190Y-88428571D01*
X179571428Y-88238095D01*
X178714285Y-89952380D02*
X178809523Y-90047619D01*
X178904761Y-89952380D01*
X178809523Y-89857142D01*
X178714285Y-89952380D01*
X178904761Y-89952380D01*
X177666666Y-89952380D02*
X177761904Y-90047619D01*
X177857142Y-89952380D01*
X177761904Y-89857142D01*
X177666666Y-89952380D01*
X177857142Y-89952380D01*
X178904761Y-92428571D02*
X176904761Y-92428571D01*
X178333333Y-93095238D01*
X176904761Y-93761904D01*
X178904761Y-93761904D01*
X178809523Y-95476190D02*
X178904761Y-95285714D01*
X178904761Y-94904761D01*
X178809523Y-94714285D01*
X178619047Y-94619047D01*
X177857142Y-94619047D01*
X177666666Y-94714285D01*
X177571428Y-94904761D01*
X177571428Y-95285714D01*
X177666666Y-95476190D01*
X177857142Y-95571428D01*
X178047619Y-95571428D01*
X178238095Y-94619047D01*
X178904761Y-96428571D02*
X176904761Y-96428571D01*
X178904761Y-97285714D02*
X177857142Y-97285714D01*
X177666666Y-97190476D01*
X177571428Y-97000000D01*
X177571428Y-96714285D01*
X177666666Y-96523809D01*
X177761904Y-96428571D01*
X178904761Y-98238095D02*
X177571428Y-98238095D01*
X177761904Y-98238095D02*
X177666666Y-98333333D01*
X177571428Y-98523809D01*
X177571428Y-98809523D01*
X177666666Y-99000000D01*
X177857142Y-99095238D01*
X178904761Y-99095238D01*
X177857142Y-99095238D02*
X177666666Y-99190476D01*
X177571428Y-99380952D01*
X177571428Y-99666666D01*
X177666666Y-99857142D01*
X177857142Y-99952380D01*
X178904761Y-99952380D01*
X178809523Y-101666666D02*
X178904761Y-101476190D01*
X178904761Y-101095238D01*
X178809523Y-100904761D01*
X178619047Y-100809523D01*
X177857142Y-100809523D01*
X177666666Y-100904761D01*
X177571428Y-101095238D01*
X177571428Y-101476190D01*
X177666666Y-101666666D01*
X177857142Y-101761904D01*
X178047619Y-101761904D01*
X178238095Y-100809523D01*
X177571428Y-102333333D02*
X177571428Y-103095238D01*
X176904761Y-102619047D02*
X178619047Y-102619047D01*
X178809523Y-102714285D01*
X178904761Y-102904761D01*
X178904761Y-103095238D01*
X177857142Y-105285714D02*
X177857142Y-105952380D01*
X178904761Y-106238095D02*
X178904761Y-105285714D01*
X176904761Y-105285714D01*
X176904761Y-106238095D01*
X178904761Y-107095238D02*
X177571428Y-107095238D01*
X177761904Y-107095238D02*
X177666666Y-107190476D01*
X177571428Y-107380952D01*
X177571428Y-107666666D01*
X177666666Y-107857142D01*
X177857142Y-107952380D01*
X178904761Y-107952380D01*
X177857142Y-107952380D02*
X177666666Y-108047619D01*
X177571428Y-108238095D01*
X177571428Y-108523809D01*
X177666666Y-108714285D01*
X177857142Y-108809523D01*
X178904761Y-108809523D01*
X178904761Y-109761904D02*
X177571428Y-109761904D01*
X177952380Y-109761904D02*
X177761904Y-109857142D01*
X177666666Y-109952380D01*
X177571428Y-110142857D01*
X177571428Y-110333333D01*
X178809523Y-111761904D02*
X178904761Y-111571428D01*
X178904761Y-111190476D01*
X178809523Y-110999999D01*
X178619047Y-110904761D01*
X177857142Y-110904761D01*
X177666666Y-110999999D01*
X177571428Y-111190476D01*
X177571428Y-111571428D01*
X177666666Y-111761904D01*
X177857142Y-111857142D01*
X178047619Y-111857142D01*
X178238095Y-110904761D01*
X178904761Y-114238095D02*
X176904761Y-114238095D01*
X176904761Y-114714285D01*
X177000000Y-114999999D01*
X177190476Y-115190476D01*
X177380952Y-115285714D01*
X177761904Y-115380952D01*
X178047619Y-115380952D01*
X178428571Y-115285714D01*
X178619047Y-115190476D01*
X178809523Y-114999999D01*
X178904761Y-114714285D01*
X178904761Y-114238095D01*
X178904761Y-116523809D02*
X178809523Y-116333333D01*
X178714285Y-116238095D01*
X178523809Y-116142857D01*
X177952380Y-116142857D01*
X177761904Y-116238095D01*
X177666666Y-116333333D01*
X177571428Y-116523809D01*
X177571428Y-116809523D01*
X177666666Y-116999999D01*
X177761904Y-117095238D01*
X177952380Y-117190476D01*
X178523809Y-117190476D01*
X178714285Y-117095238D01*
X178809523Y-116999999D01*
X178904761Y-116809523D01*
X178904761Y-116523809D01*
X177571428Y-118904761D02*
X179190476Y-118904761D01*
X179380952Y-118809523D01*
X179476190Y-118714285D01*
X179571428Y-118523809D01*
X179571428Y-118238095D01*
X179476190Y-118047619D01*
X178809523Y-118904761D02*
X178904761Y-118714285D01*
X178904761Y-118333333D01*
X178809523Y-118142857D01*
X178714285Y-118047619D01*
X178523809Y-117952380D01*
X177952380Y-117952380D01*
X177761904Y-118047619D01*
X177666666Y-118142857D01*
X177571428Y-118333333D01*
X177571428Y-118714285D01*
X177666666Y-118904761D01*
X176809523Y-118047619D02*
X177000000Y-118142857D01*
X177095238Y-118333333D01*
X177095238Y-118523809D01*
X177000000Y-118714285D01*
X176809523Y-118809523D01*
X178904761Y-120714285D02*
X177857142Y-120714285D01*
X177666666Y-120619047D01*
X177571428Y-120428571D01*
X177571428Y-120047619D01*
X177666666Y-119857142D01*
X178809523Y-120714285D02*
X178904761Y-120523809D01*
X178904761Y-120047619D01*
X178809523Y-119857142D01*
X178619047Y-119761904D01*
X178428571Y-119761904D01*
X178238095Y-119857142D01*
X178142857Y-120047619D01*
X178142857Y-120523809D01*
X178047619Y-120714285D01*
X177571428Y-121666666D02*
X178904761Y-121666666D01*
X177761904Y-121666666D02*
X177666666Y-121761904D01*
X177571428Y-121952380D01*
X177571428Y-122238095D01*
X177666666Y-122428571D01*
X177857142Y-122523809D01*
X178904761Y-122523809D01*
X157357142Y-81785714D02*
X154357142Y-81785714D01*
X157357142Y-83500000D01*
X154357142Y-83500000D01*
X155785714Y-84928571D02*
X155785714Y-85928571D01*
X157357142Y-86357142D02*
X157357142Y-84928571D01*
X154357142Y-84928571D01*
X154357142Y-86357142D01*
X154357142Y-89071428D02*
X154357142Y-87642857D01*
X155785714Y-87500000D01*
X155642857Y-87642857D01*
X155500000Y-87928571D01*
X155500000Y-88642857D01*
X155642857Y-88928571D01*
X155785714Y-89071428D01*
X156071428Y-89214285D01*
X156785714Y-89214285D01*
X157071428Y-89071428D01*
X157214285Y-88928571D01*
X157357142Y-88642857D01*
X157357142Y-87928571D01*
X157214285Y-87642857D01*
X157071428Y-87500000D01*
X154357142Y-91928571D02*
X154357142Y-90500000D01*
X155785714Y-90357142D01*
X155642857Y-90500000D01*
X155500000Y-90785714D01*
X155500000Y-91500000D01*
X155642857Y-91785714D01*
X155785714Y-91928571D01*
X156071428Y-92071428D01*
X156785714Y-92071428D01*
X157071428Y-91928571D01*
X157214285Y-91785714D01*
X157357142Y-91500000D01*
X157357142Y-90785714D01*
X157214285Y-90500000D01*
X157071428Y-90357142D01*
X154357142Y-94785714D02*
X154357142Y-93357142D01*
X155785714Y-93214285D01*
X155642857Y-93357142D01*
X155500000Y-93642857D01*
X155500000Y-94357142D01*
X155642857Y-94642857D01*
X155785714Y-94785714D01*
X156071428Y-94928571D01*
X156785714Y-94928571D01*
X157071428Y-94785714D01*
X157214285Y-94642857D01*
X157357142Y-94357142D01*
X157357142Y-93642857D01*
X157214285Y-93357142D01*
X157071428Y-93214285D01*
X157357142Y-98500000D02*
X154357142Y-98500000D01*
X154357142Y-99642857D01*
X154500000Y-99928571D01*
X154642857Y-100071428D01*
X154928571Y-100214285D01*
X155357142Y-100214285D01*
X155642857Y-100071428D01*
X155785714Y-99928571D01*
X155928571Y-99642857D01*
X155928571Y-98500000D01*
X154357142Y-101214285D02*
X157357142Y-101928571D01*
X155214285Y-102500000D01*
X157357142Y-103071428D01*
X154357142Y-103785714D01*
X157357142Y-104928571D02*
X154357142Y-104928571D01*
X156500000Y-105928571D01*
X154357142Y-106928571D01*
X157357142Y-106928571D01*
X157357142Y-110642857D02*
X154357142Y-110642857D01*
X154357142Y-111357142D01*
X154500000Y-111785714D01*
X154785714Y-112071428D01*
X155071428Y-112214285D01*
X155642857Y-112357142D01*
X156071428Y-112357142D01*
X156642857Y-112214285D01*
X156928571Y-112071428D01*
X157214285Y-111785714D01*
X157357142Y-111357142D01*
X157357142Y-110642857D01*
X157357142Y-113642857D02*
X155357142Y-113642857D01*
X155928571Y-113642857D02*
X155642857Y-113785714D01*
X155500000Y-113928571D01*
X155357142Y-114214285D01*
X155357142Y-114500000D01*
X157357142Y-115500000D02*
X155357142Y-115500000D01*
X154357142Y-115500000D02*
X154500000Y-115357142D01*
X154642857Y-115500000D01*
X154500000Y-115642857D01*
X154357142Y-115500000D01*
X154642857Y-115500000D01*
X155357142Y-116642857D02*
X157357142Y-117357142D01*
X155357142Y-118071428D01*
X157214285Y-120357142D02*
X157357142Y-120071428D01*
X157357142Y-119500000D01*
X157214285Y-119214285D01*
X156928571Y-119071428D01*
X155785714Y-119071428D01*
X155500000Y-119214285D01*
X155357142Y-119500000D01*
X155357142Y-120071428D01*
X155500000Y-120357142D01*
X155785714Y-120500000D01*
X156071428Y-120500000D01*
X156357142Y-119071428D01*
X157357142Y-121785714D02*
X155357142Y-121785714D01*
X155928571Y-121785714D02*
X155642857Y-121928571D01*
X155500000Y-122071428D01*
X155357142Y-122357142D01*
X155357142Y-122642857D01*
M02*
