%TF.GenerationSoftware,KiCad,Pcbnew,(6.0.2)*%
%TF.CreationDate,2022-03-20T02:44:05+03:00*%
%TF.ProjectId,NE555_PWM_Driver,4e453535-355f-4505-974d-5f4472697665,rev?*%
%TF.SameCoordinates,Original*%
%TF.FileFunction,Copper,L1,Top*%
%TF.FilePolarity,Positive*%
%FSLAX46Y46*%
G04 Gerber Fmt 4.6, Leading zero omitted, Abs format (unit mm)*
G04 Created by KiCad (PCBNEW (6.0.2)) date 2022-03-20 02:44:05*
%MOMM*%
%LPD*%
G01*
G04 APERTURE LIST*
%TA.AperFunction,ComponentPad*%
%ADD10R,2.500000X2.500000*%
%TD*%
%TA.AperFunction,ComponentPad*%
%ADD11C,2.500000*%
%TD*%
%TA.AperFunction,ComponentPad*%
%ADD12R,1.800000X1.800000*%
%TD*%
%TA.AperFunction,ComponentPad*%
%ADD13C,1.800000*%
%TD*%
%TA.AperFunction,ComponentPad*%
%ADD14C,1.600000*%
%TD*%
%TA.AperFunction,ComponentPad*%
%ADD15O,1.600000X1.600000*%
%TD*%
%TA.AperFunction,ComponentPad*%
%ADD16O,2.200000X2.200000*%
%TD*%
%TA.AperFunction,ComponentPad*%
%ADD17R,2.200000X2.200000*%
%TD*%
%TA.AperFunction,ComponentPad*%
%ADD18R,1.600000X1.600000*%
%TD*%
%TA.AperFunction,ComponentPad*%
%ADD19R,1.905000X2.000000*%
%TD*%
%TA.AperFunction,ComponentPad*%
%ADD20O,1.905000X2.000000*%
%TD*%
%TA.AperFunction,ComponentPad*%
%ADD21C,2.340000*%
%TD*%
%TA.AperFunction,Conductor*%
%ADD22C,0.750000*%
%TD*%
%TA.AperFunction,Conductor*%
%ADD23C,2.500000*%
%TD*%
G04 APERTURE END LIST*
D10*
%TO.P,J1,1,Pin_1*%
%TO.N,Net-(J1-Pad1)*%
X186545000Y-120000000D03*
D11*
%TO.P,J1,2,Pin_2*%
%TO.N,GND*%
X181465000Y-120000000D03*
%TD*%
D12*
%TO.P,D4,1,K*%
%TO.N,Net-(D4-Pad1)*%
X192080000Y-80500000D03*
D13*
%TO.P,D4,2,A*%
%TO.N,VCC*%
X192080000Y-83040000D03*
%TD*%
D14*
%TO.P,R2,1*%
%TO.N,VCC*%
X158670000Y-91250000D03*
D15*
%TO.P,R2,2*%
%TO.N,Net-(R2-Pad2)*%
X168830000Y-91250000D03*
%TD*%
D14*
%TO.P,R4,1*%
%TO.N,Net-(D4-Pad1)*%
X185160000Y-80500000D03*
D15*
%TO.P,R4,2*%
%TO.N,GND*%
X175000000Y-80500000D03*
%TD*%
D12*
%TO.P,D3,1,K*%
%TO.N,Net-(D3-Pad1)*%
X192080000Y-73500000D03*
D13*
%TO.P,D3,2,A*%
%TO.N,OUT*%
X192080000Y-76040000D03*
%TD*%
D16*
%TO.P,D1,2,A*%
%TO.N,Net-(D1-Pad2)*%
X185080000Y-91000000D03*
D17*
%TO.P,D1,1,K*%
%TO.N,pin_2*%
X174920000Y-91000000D03*
%TD*%
D15*
%TO.P,U1,8,VCC*%
%TO.N,VCC*%
X168290000Y-77920000D03*
%TO.P,U1,7,DIS*%
%TO.N,Net-(R2-Pad2)*%
X168290000Y-80460000D03*
%TO.P,U1,6,THR*%
%TO.N,pin_2*%
X168290000Y-83000000D03*
%TO.P,U1,5,CV*%
%TO.N,unconnected-(U1-Pad5)*%
X168290000Y-85540000D03*
%TO.P,U1,4,R*%
%TO.N,VCC*%
X160670000Y-85540000D03*
%TO.P,U1,3,Q*%
%TO.N,OUT*%
X160670000Y-83000000D03*
%TO.P,U1,2,TR*%
%TO.N,pin_2*%
X160670000Y-80460000D03*
D18*
%TO.P,U1,1,GND*%
%TO.N,GND*%
X160670000Y-77920000D03*
%TD*%
D19*
%TO.P,Q1,1,G*%
%TO.N,OUT*%
X168790000Y-100055000D03*
D20*
%TO.P,Q1,2,D*%
%TO.N,Net-(J2-Pad2)*%
X166250000Y-100055000D03*
%TO.P,Q1,3,S*%
%TO.N,GND*%
X163710000Y-100055000D03*
%TD*%
D21*
%TO.P,R1,8*%
%TO.N,VCC*%
X183500000Y-100400000D03*
%TO.P,R1,7*%
%TO.N,Net-(J1-Pad1)*%
X183500000Y-107600000D03*
%TO.P,R1,6,6*%
%TO.N,Net-(D2-Pad1)*%
X188000000Y-100400000D03*
%TO.P,R1,5,5*%
%TO.N,OUT*%
X188000000Y-104000000D03*
%TO.P,R1,4,4*%
%TO.N,Net-(D1-Pad2)*%
X188000000Y-107600000D03*
%TO.P,R1,3,3*%
%TO.N,unconnected-(R1-Pad3)*%
X192500000Y-100400000D03*
%TO.P,R1,2,2*%
%TO.N,unconnected-(R1-Pad2)*%
X192500000Y-104000000D03*
%TO.P,R1,1,1*%
%TO.N,unconnected-(R1-Pad1)*%
X192500000Y-107600000D03*
%TD*%
D14*
%TO.P,C1,2*%
%TO.N,GND*%
X155750000Y-77500000D03*
%TO.P,C1,1*%
%TO.N,pin_2*%
X155750000Y-80000000D03*
%TD*%
D10*
%TO.P,J2,1,Pin_1*%
%TO.N,VCC*%
X172545000Y-120000000D03*
D11*
%TO.P,J2,2,Pin_2*%
%TO.N,Net-(J2-Pad2)*%
X167465000Y-120000000D03*
%TD*%
D17*
%TO.P,D2,1,K*%
%TO.N,Net-(D2-Pad1)*%
X185080000Y-86000000D03*
D16*
%TO.P,D2,2,A*%
%TO.N,pin_2*%
X174920000Y-86000000D03*
%TD*%
D14*
%TO.P,R3,1*%
%TO.N,Net-(D3-Pad1)*%
X185160000Y-73500000D03*
D15*
%TO.P,R3,2*%
%TO.N,GND*%
X175000000Y-73500000D03*
%TD*%
D22*
%TO.N,OUT*%
X194750000Y-78710000D02*
X192080000Y-76040000D01*
X194750000Y-83750000D02*
X194750000Y-78710000D01*
X190755489Y-101244511D02*
X190755489Y-87744511D01*
X190755489Y-87744511D02*
X194750000Y-83750000D01*
X188000000Y-104000000D02*
X190755489Y-101244511D01*
%TO.N,VCC*%
X162920000Y-95500000D02*
X158670000Y-91250000D01*
X172250000Y-95500000D02*
X162920000Y-95500000D01*
%TO.N,Net-(R2-Pad2)*%
X170000000Y-91250000D02*
X168830000Y-91250000D01*
X171750000Y-82250000D02*
X171750000Y-89500000D01*
X171750000Y-89500000D02*
X170000000Y-91250000D01*
X169960000Y-80460000D02*
X171750000Y-82250000D01*
X168290000Y-80460000D02*
X169960000Y-80460000D01*
%TO.N,VCC*%
X160670000Y-85540000D02*
X160670000Y-89250000D01*
X160670000Y-89250000D02*
X158670000Y-91250000D01*
%TO.N,pin_2*%
X160210000Y-80000000D02*
X160670000Y-80460000D01*
X155750000Y-80000000D02*
X160210000Y-80000000D01*
%TO.N,GND*%
X160250000Y-77500000D02*
X160670000Y-77920000D01*
X155750000Y-77500000D02*
X160250000Y-77500000D01*
%TO.N,VCC*%
X177150000Y-100400000D02*
X183500000Y-100400000D01*
X172250000Y-95500000D02*
X177150000Y-100400000D01*
D23*
%TO.N,Net-(J2-Pad2)*%
X166250000Y-100055000D02*
X166250000Y-118785000D01*
X166250000Y-118785000D02*
X167465000Y-120000000D01*
D22*
%TO.N,VCC*%
X160670000Y-85540000D02*
X168290000Y-77920000D01*
%TO.N,Net-(D1-Pad2)*%
X185500000Y-105100000D02*
X188000000Y-107600000D01*
X185080000Y-91000000D02*
X185500000Y-91420000D01*
X185500000Y-91420000D02*
X185500000Y-105100000D01*
%TO.N,Net-(D2-Pad1)*%
X188000000Y-87000000D02*
X188000000Y-100400000D01*
X187000000Y-86000000D02*
X188000000Y-87000000D01*
X185080000Y-86000000D02*
X187000000Y-86000000D01*
D23*
%TO.N,VCC*%
X172545000Y-111355000D02*
X172545000Y-120000000D01*
X183500000Y-100400000D02*
X172545000Y-111355000D01*
%TO.N,Net-(J1-Pad1)*%
X186545000Y-114545000D02*
X186545000Y-120000000D01*
X183500000Y-107600000D02*
X183500000Y-111500000D01*
X183500000Y-111500000D02*
X186545000Y-114545000D01*
D22*
%TO.N,GND*%
X175000000Y-73500000D02*
X175000000Y-80500000D01*
%TO.N,Net-(D4-Pad1)*%
X185160000Y-80500000D02*
X192080000Y-80500000D01*
%TO.N,Net-(D3-Pad1)*%
X185160000Y-73500000D02*
X192080000Y-73500000D01*
%TD*%
M02*
