%TF.GenerationSoftware,KiCad,Pcbnew,(6.0.2)*%
%TF.CreationDate,2022-03-20T02:44:05+03:00*%
%TF.ProjectId,NE555_PWM_Driver,4e453535-355f-4505-974d-5f4472697665,rev?*%
%TF.SameCoordinates,Original*%
%TF.FileFunction,Soldermask,Top*%
%TF.FilePolarity,Negative*%
%FSLAX46Y46*%
G04 Gerber Fmt 4.6, Leading zero omitted, Abs format (unit mm)*
G04 Created by KiCad (PCBNEW (6.0.2)) date 2022-03-20 02:44:05*
%MOMM*%
%LPD*%
G01*
G04 APERTURE LIST*
%ADD10R,2.500000X2.500000*%
%ADD11C,2.500000*%
%ADD12R,1.800000X1.800000*%
%ADD13C,1.800000*%
%ADD14C,1.600000*%
%ADD15O,1.600000X1.600000*%
%ADD16O,2.200000X2.200000*%
%ADD17R,2.200000X2.200000*%
%ADD18R,1.600000X1.600000*%
%ADD19R,1.905000X2.000000*%
%ADD20O,1.905000X2.000000*%
%ADD21C,2.340000*%
G04 APERTURE END LIST*
D10*
%TO.C,J1*%
X186545000Y-120000000D03*
D11*
X181465000Y-120000000D03*
%TD*%
D12*
%TO.C,D4*%
X192080000Y-80500000D03*
D13*
X192080000Y-83040000D03*
%TD*%
D14*
%TO.C,R2*%
X158670000Y-91250000D03*
D15*
X168830000Y-91250000D03*
%TD*%
D14*
%TO.C,R4*%
X185160000Y-80500000D03*
D15*
X175000000Y-80500000D03*
%TD*%
D12*
%TO.C,D3*%
X192080000Y-73500000D03*
D13*
X192080000Y-76040000D03*
%TD*%
D16*
%TO.C,D1*%
X185080000Y-91000000D03*
D17*
X174920000Y-91000000D03*
%TD*%
D15*
%TO.C,U1*%
X168290000Y-77920000D03*
X168290000Y-80460000D03*
X168290000Y-83000000D03*
X168290000Y-85540000D03*
X160670000Y-85540000D03*
X160670000Y-83000000D03*
X160670000Y-80460000D03*
D18*
X160670000Y-77920000D03*
%TD*%
D19*
%TO.C,Q1*%
X168790000Y-100055000D03*
D20*
X166250000Y-100055000D03*
X163710000Y-100055000D03*
%TD*%
D21*
%TO.C,R1*%
X183500000Y-100400000D03*
X183500000Y-107600000D03*
X188000000Y-100400000D03*
X188000000Y-104000000D03*
X188000000Y-107600000D03*
X192500000Y-100400000D03*
X192500000Y-104000000D03*
X192500000Y-107600000D03*
%TD*%
D14*
%TO.C,C1*%
X155750000Y-77500000D03*
X155750000Y-80000000D03*
%TD*%
D10*
%TO.C,J2*%
X172545000Y-120000000D03*
D11*
X167465000Y-120000000D03*
%TD*%
D17*
%TO.C,D2*%
X185080000Y-86000000D03*
D16*
X174920000Y-86000000D03*
%TD*%
D14*
%TO.C,R3*%
X185160000Y-73500000D03*
D15*
X175000000Y-73500000D03*
%TD*%
M02*
