M48
; DRILL file {KiCad (6.0.2)} date Sun Mar 20 03:02:39 2022
; FORMAT={-:-/ absolute / inch / decimal}
; #@! TF.CreationDate,2022-03-20T03:02:39+03:00
; #@! TF.GenerationSoftware,Kicad,Pcbnew,(6.0.2)
; #@! TF.FileFunction,Plated,1,2,PTH
FMAT,2
INCH
; #@! TA.AperFunction,Plated,PTH,ComponentDrill
T1C0.0315
; #@! TA.AperFunction,Plated,PTH,ComponentDrill
T2C0.0354
; #@! TA.AperFunction,Plated,PTH,ComponentDrill
T3C0.0433
; #@! TA.AperFunction,Plated,PTH,ComponentDrill
T4C0.0512
%
G90
G05
T1
X6.1319Y-3.0512
X6.1319Y-3.1496
X6.2469Y-3.5925
X6.3256Y-3.0677
X6.3256Y-3.1677
X6.3256Y-3.2677
X6.3256Y-3.3677
X6.6256Y-3.0677
X6.6256Y-3.1677
X6.6256Y-3.2677
X6.6256Y-3.3677
X6.6469Y-3.5925
X6.8898Y-2.8937
X6.8898Y-3.1693
X7.2898Y-2.8937
X7.2898Y-3.1693
T2
X7.5622Y-2.8937
X7.5622Y-2.9937
X7.5622Y-3.1693
X7.5622Y-3.2693
T3
X6.4453Y-3.9392
X6.5453Y-3.9392
X6.6453Y-3.9392
X6.8866Y-3.3858
X6.8866Y-3.5827
X7.2866Y-3.3858
X7.2866Y-3.5827
T4
X6.5931Y-4.7244
X6.7931Y-4.7244
X7.1443Y-4.7244
X7.2244Y-3.9528
X7.2244Y-4.2362
X7.3443Y-4.7244
X7.4016Y-3.9528
X7.4016Y-4.0945
X7.4016Y-4.2362
X7.5787Y-3.9528
X7.5787Y-4.0945
X7.5787Y-4.2362
T0
M30
