%TF.GenerationSoftware,KiCad,Pcbnew,(6.0.2)*%
%TF.CreationDate,2022-07-31T15:55:41+03:00*%
%TF.ProjectId,NE555_PWM_Driver,4e453535-355f-4505-974d-5f4472697665,rev?*%
%TF.SameCoordinates,Original*%
%TF.FileFunction,Soldermask,Top*%
%TF.FilePolarity,Negative*%
%FSLAX46Y46*%
G04 Gerber Fmt 4.6, Leading zero omitted, Abs format (unit mm)*
G04 Created by KiCad (PCBNEW (6.0.2)) date 2022-07-31 15:55:41*
%MOMM*%
%LPD*%
G01*
G04 APERTURE LIST*
G04 Aperture macros list*
%AMRoundRect*
0 Rectangle with rounded corners*
0 $1 Rounding radius*
0 $2 $3 $4 $5 $6 $7 $8 $9 X,Y pos of 4 corners*
0 Add a 4 corners polygon primitive as box body*
4,1,4,$2,$3,$4,$5,$6,$7,$8,$9,$2,$3,0*
0 Add four circle primitives for the rounded corners*
1,1,$1+$1,$2,$3*
1,1,$1+$1,$4,$5*
1,1,$1+$1,$6,$7*
1,1,$1+$1,$8,$9*
0 Add four rect primitives between the rounded corners*
20,1,$1+$1,$2,$3,$4,$5,0*
20,1,$1+$1,$4,$5,$6,$7,0*
20,1,$1+$1,$6,$7,$8,$9,0*
20,1,$1+$1,$8,$9,$2,$3,0*%
G04 Aperture macros list end*
%ADD10R,2.500000X2.500000*%
%ADD11C,2.500000*%
%ADD12R,1.800000X1.800000*%
%ADD13C,1.800000*%
%ADD14RoundRect,0.237500X-0.250000X-0.237500X0.250000X-0.237500X0.250000X0.237500X-0.250000X0.237500X0*%
%ADD15RoundRect,0.237500X0.250000X0.237500X-0.250000X0.237500X-0.250000X-0.237500X0.250000X-0.237500X0*%
%ADD16R,3.500000X2.300000*%
%ADD17RoundRect,0.150000X0.150000X-0.825000X0.150000X0.825000X-0.150000X0.825000X-0.150000X-0.825000X0*%
%ADD18R,3.300000X2.410000*%
%ADD19R,1.905000X2.000000*%
%ADD20O,1.905000X2.000000*%
%ADD21R,4.500000X3.300000*%
%ADD22C,2.340000*%
%ADD23RoundRect,0.237500X0.300000X0.237500X-0.300000X0.237500X-0.300000X-0.237500X0.300000X-0.237500X0*%
G04 APERTURE END LIST*
D10*
%TO.C,J1*%
X187455000Y-120000000D03*
D11*
X182375000Y-120000000D03*
%TD*%
D12*
%TO.C,D4*%
X194000000Y-91000000D03*
D13*
X194000000Y-93540000D03*
%TD*%
D14*
%TO.C,R2*%
X164175000Y-87000000D03*
X166000000Y-87000000D03*
%TD*%
D15*
%TO.C,R4*%
X189912500Y-90000000D03*
X188087500Y-90000000D03*
%TD*%
D12*
%TO.C,D3*%
X194000000Y-84000000D03*
D13*
X194000000Y-86540000D03*
%TD*%
D16*
%TO.C,D1*%
X175000000Y-93000000D03*
X180400000Y-93000000D03*
%TD*%
D17*
%TO.C,U1*%
X165095000Y-94475000D03*
X166365000Y-94475000D03*
X167635000Y-94475000D03*
X168905000Y-94475000D03*
X168905000Y-89525000D03*
X167635000Y-89525000D03*
X166365000Y-89525000D03*
X165095000Y-89525000D03*
D18*
X167000000Y-92000000D03*
%TD*%
D19*
%TO.C,Q1*%
X168790000Y-100055000D03*
D20*
X166250000Y-100055000D03*
X163710000Y-100055000D03*
%TD*%
D21*
%TO.C,D5*%
X174800000Y-111000000D03*
X166000000Y-111000000D03*
%TD*%
D22*
%TO.C,R1*%
X192500000Y-107600000D03*
X192500000Y-104000000D03*
X192500000Y-100400000D03*
X188000000Y-107600000D03*
X188000000Y-104000000D03*
X188000000Y-100400000D03*
X183500000Y-107600000D03*
X183500000Y-100400000D03*
%TD*%
D23*
%TO.C,C1*%
X165725000Y-97000000D03*
X164000000Y-97000000D03*
%TD*%
D10*
%TO.C,J2*%
X172545000Y-120000000D03*
D11*
X167465000Y-120000000D03*
%TD*%
D16*
%TO.C,D2*%
X180000000Y-88000000D03*
X174600000Y-88000000D03*
%TD*%
D15*
%TO.C,R3*%
X189657776Y-82522500D03*
X187832776Y-82522500D03*
%TD*%
M02*
