%TF.GenerationSoftware,KiCad,Pcbnew,(6.0.2)*%
%TF.CreationDate,2022-08-06T16:36:37+03:00*%
%TF.ProjectId,NE555_PWM_Driver,4e453535-355f-4505-974d-5f4472697665,rev?*%
%TF.SameCoordinates,Original*%
%TF.FileFunction,Copper,L1,Top*%
%TF.FilePolarity,Positive*%
%FSLAX46Y46*%
G04 Gerber Fmt 4.6, Leading zero omitted, Abs format (unit mm)*
G04 Created by KiCad (PCBNEW (6.0.2)) date 2022-08-06 16:36:37*
%MOMM*%
%LPD*%
G01*
G04 APERTURE LIST*
G04 Aperture macros list*
%AMRoundRect*
0 Rectangle with rounded corners*
0 $1 Rounding radius*
0 $2 $3 $4 $5 $6 $7 $8 $9 X,Y pos of 4 corners*
0 Add a 4 corners polygon primitive as box body*
4,1,4,$2,$3,$4,$5,$6,$7,$8,$9,$2,$3,0*
0 Add four circle primitives for the rounded corners*
1,1,$1+$1,$2,$3*
1,1,$1+$1,$4,$5*
1,1,$1+$1,$6,$7*
1,1,$1+$1,$8,$9*
0 Add four rect primitives between the rounded corners*
20,1,$1+$1,$2,$3,$4,$5,0*
20,1,$1+$1,$4,$5,$6,$7,0*
20,1,$1+$1,$6,$7,$8,$9,0*
20,1,$1+$1,$8,$9,$2,$3,0*%
G04 Aperture macros list end*
%TA.AperFunction,ComponentPad*%
%ADD10R,2.500000X2.500000*%
%TD*%
%TA.AperFunction,ComponentPad*%
%ADD11C,2.500000*%
%TD*%
%TA.AperFunction,ComponentPad*%
%ADD12R,1.800000X1.800000*%
%TD*%
%TA.AperFunction,ComponentPad*%
%ADD13C,1.800000*%
%TD*%
%TA.AperFunction,SMDPad,CuDef*%
%ADD14RoundRect,0.237500X-0.250000X-0.237500X0.250000X-0.237500X0.250000X0.237500X-0.250000X0.237500X0*%
%TD*%
%TA.AperFunction,SMDPad,CuDef*%
%ADD15RoundRect,0.237500X0.250000X0.237500X-0.250000X0.237500X-0.250000X-0.237500X0.250000X-0.237500X0*%
%TD*%
%TA.AperFunction,SMDPad,CuDef*%
%ADD16R,3.500000X2.300000*%
%TD*%
%TA.AperFunction,SMDPad,CuDef*%
%ADD17RoundRect,0.150000X0.150000X-0.825000X0.150000X0.825000X-0.150000X0.825000X-0.150000X-0.825000X0*%
%TD*%
%TA.AperFunction,SMDPad,CuDef*%
%ADD18R,3.300000X2.410000*%
%TD*%
%TA.AperFunction,ComponentPad*%
%ADD19R,1.905000X2.000000*%
%TD*%
%TA.AperFunction,ComponentPad*%
%ADD20O,1.905000X2.000000*%
%TD*%
%TA.AperFunction,SMDPad,CuDef*%
%ADD21R,4.500000X3.300000*%
%TD*%
%TA.AperFunction,ComponentPad*%
%ADD22C,2.340000*%
%TD*%
%TA.AperFunction,SMDPad,CuDef*%
%ADD23RoundRect,0.237500X0.300000X0.237500X-0.300000X0.237500X-0.300000X-0.237500X0.300000X-0.237500X0*%
%TD*%
%TA.AperFunction,ViaPad*%
%ADD24C,0.800000*%
%TD*%
%TA.AperFunction,Conductor*%
%ADD25C,0.750000*%
%TD*%
%TA.AperFunction,Conductor*%
%ADD26C,0.300000*%
%TD*%
%TA.AperFunction,Conductor*%
%ADD27C,2.000000*%
%TD*%
%TA.AperFunction,Conductor*%
%ADD28C,2.500000*%
%TD*%
%TA.AperFunction,Conductor*%
%ADD29C,0.500000*%
%TD*%
G04 APERTURE END LIST*
D10*
%TO.P,J1,1,Pin_1*%
%TO.N,Net-(J1-Pad1)*%
X187455000Y-120000000D03*
D11*
%TO.P,J1,2,Pin_2*%
%TO.N,GND*%
X182375000Y-120000000D03*
%TD*%
D12*
%TO.P,D4,1,K*%
%TO.N,Net-(D4-Pad1)*%
X194000000Y-91000000D03*
D13*
%TO.P,D4,2,A*%
%TO.N,VCC*%
X194000000Y-93540000D03*
%TD*%
D14*
%TO.P,R2,1*%
%TO.N,VCC*%
X164175000Y-87000000D03*
%TO.P,R2,2*%
%TO.N,Net-(R2-Pad2)*%
X166000000Y-87000000D03*
%TD*%
D15*
%TO.P,R4,1*%
%TO.N,Net-(D4-Pad1)*%
X189912500Y-90000000D03*
%TO.P,R4,2*%
%TO.N,GND*%
X188087500Y-90000000D03*
%TD*%
D12*
%TO.P,D3,1,K*%
%TO.N,Net-(D3-Pad1)*%
X194000000Y-84000000D03*
D13*
%TO.P,D3,2,A*%
%TO.N,OUT*%
X194000000Y-86540000D03*
%TD*%
D16*
%TO.P,D1,1,K*%
%TO.N,pin_2*%
X175000000Y-93000000D03*
%TO.P,D1,2,A*%
%TO.N,Net-(D1-Pad2)*%
X180400000Y-93000000D03*
%TD*%
D17*
%TO.P,U1,1,GND*%
%TO.N,GND*%
X165095000Y-94475000D03*
%TO.P,U1,2,TR*%
%TO.N,pin_2*%
X166365000Y-94475000D03*
%TO.P,U1,3,Q*%
%TO.N,OUT*%
X167635000Y-94475000D03*
%TO.P,U1,4,R*%
%TO.N,VCC*%
X168905000Y-94475000D03*
%TO.P,U1,5,CV*%
%TO.N,unconnected-(U1-Pad5)*%
X168905000Y-89525000D03*
%TO.P,U1,6,THR*%
%TO.N,pin_2*%
X167635000Y-89525000D03*
%TO.P,U1,7,DIS*%
%TO.N,Net-(R2-Pad2)*%
X166365000Y-89525000D03*
%TO.P,U1,8,VCC*%
%TO.N,VCC*%
X165095000Y-89525000D03*
D18*
%TO.P,U1,9*%
%TO.N,N/C*%
X167000000Y-92000000D03*
%TD*%
D19*
%TO.P,Q1,1,G*%
%TO.N,OUT*%
X168790000Y-100055000D03*
D20*
%TO.P,Q1,2,D*%
%TO.N,Net-(D5-Pad2)*%
X166250000Y-100055000D03*
%TO.P,Q1,3,S*%
%TO.N,GND*%
X163710000Y-100055000D03*
%TD*%
D21*
%TO.P,D5,1,K*%
%TO.N,VCC*%
X174800000Y-111000000D03*
%TO.P,D5,2,A*%
%TO.N,Net-(D5-Pad2)*%
X166000000Y-111000000D03*
%TD*%
D22*
%TO.P,R1,1,1*%
%TO.N,unconnected-(R1-Pad1)*%
X192500000Y-107600000D03*
%TO.P,R1,2,2*%
%TO.N,unconnected-(R1-Pad2)*%
X192500000Y-104000000D03*
%TO.P,R1,3,3*%
%TO.N,unconnected-(R1-Pad3)*%
X192500000Y-100400000D03*
%TO.P,R1,4,4*%
%TO.N,Net-(D1-Pad2)*%
X188000000Y-107600000D03*
%TO.P,R1,5,5*%
%TO.N,OUT*%
X188000000Y-104000000D03*
%TO.P,R1,6,6*%
%TO.N,Net-(D2-Pad1)*%
X188000000Y-100400000D03*
%TO.P,R1,7*%
%TO.N,Net-(J1-Pad1)*%
X183500000Y-107600000D03*
%TO.P,R1,8*%
%TO.N,VCC*%
X183500000Y-100400000D03*
%TD*%
D23*
%TO.P,C1,1*%
%TO.N,pin_2*%
X165725000Y-97000000D03*
%TO.P,C1,2*%
%TO.N,GND*%
X164000000Y-97000000D03*
%TD*%
D10*
%TO.P,J2,1,Pin_1*%
%TO.N,VCC*%
X172545000Y-120000000D03*
D11*
%TO.P,J2,2,Pin_2*%
%TO.N,Net-(D5-Pad2)*%
X167465000Y-120000000D03*
%TD*%
D16*
%TO.P,D2,1,K*%
%TO.N,Net-(D2-Pad1)*%
X180000000Y-88000000D03*
%TO.P,D2,2,A*%
%TO.N,pin_2*%
X174600000Y-88000000D03*
%TD*%
D15*
%TO.P,R3,1*%
%TO.N,Net-(D3-Pad1)*%
X189657776Y-82522500D03*
%TO.P,R3,2*%
%TO.N,GND*%
X187832776Y-82522500D03*
%TD*%
D24*
%TO.N,pin_2*%
X167500000Y-97500000D03*
X170500000Y-87000000D03*
%TO.N,OUT*%
X171000000Y-106000000D03*
X187000000Y-113000000D03*
%TO.N,VCC*%
X174625000Y-98000000D03*
X162500000Y-90000000D03*
%TD*%
D25*
%TO.N,pin_2*%
X174600000Y-88000000D02*
X174600000Y-92600000D01*
D26*
X167635000Y-89525000D02*
X167635000Y-87365000D01*
X166365000Y-94475000D02*
X166365000Y-96360000D01*
X166365000Y-96360000D02*
X165725000Y-97000000D01*
X166365000Y-96360000D02*
X166365000Y-96365000D01*
D25*
X174600000Y-92600000D02*
X175000000Y-93000000D01*
D26*
X173600000Y-87000000D02*
X174600000Y-88000000D01*
X168000000Y-87000000D02*
X170500000Y-87000000D01*
X170500000Y-87000000D02*
X173600000Y-87000000D01*
X166365000Y-96365000D02*
X167500000Y-97500000D01*
X167635000Y-87365000D02*
X168000000Y-87000000D01*
%TO.N,GND*%
X164000000Y-97000000D02*
X163710000Y-97290000D01*
D27*
X163477500Y-82522500D02*
X160000000Y-86000000D01*
D26*
X163710000Y-97290000D02*
X163710000Y-100055000D01*
D28*
X182375000Y-120000000D02*
X178375000Y-124000000D01*
D26*
X165095000Y-94475000D02*
X165095000Y-95905000D01*
D29*
X188087500Y-83087500D02*
X188000000Y-83000000D01*
D27*
X187832776Y-82522500D02*
X163477500Y-82522500D01*
X160000000Y-96345000D02*
X163710000Y-100055000D01*
D26*
X165095000Y-95905000D02*
X164000000Y-97000000D01*
D28*
X162000000Y-124000000D02*
X162000000Y-102000000D01*
X178375000Y-124000000D02*
X162000000Y-124000000D01*
D29*
X188087500Y-90000000D02*
X188087500Y-83087500D01*
D27*
X160000000Y-86000000D02*
X160000000Y-96345000D01*
D28*
X162000000Y-102000000D02*
X163000000Y-101000000D01*
D25*
%TO.N,Net-(D1-Pad2)*%
X186000000Y-94000000D02*
X185000000Y-93000000D01*
X186000000Y-105600000D02*
X186000000Y-94000000D01*
X188000000Y-107600000D02*
X186000000Y-105600000D01*
X185000000Y-93000000D02*
X180400000Y-93000000D01*
D26*
%TO.N,Net-(D2-Pad1)*%
X182050000Y-88000000D02*
X180000000Y-88000000D01*
X188000000Y-93950000D02*
X182050000Y-88000000D01*
X188000000Y-100400000D02*
X188000000Y-93950000D01*
D29*
%TO.N,Net-(D3-Pad1)*%
X189657776Y-82522500D02*
X192522500Y-82522500D01*
X192522500Y-82522500D02*
X194000000Y-84000000D01*
D25*
%TO.N,OUT*%
X193432888Y-97000000D02*
X197000000Y-97000000D01*
D26*
X167635000Y-94475000D02*
X167635000Y-95635000D01*
D25*
X188000000Y-113000000D02*
X187000000Y-113000000D01*
X188000000Y-104000000D02*
X190755489Y-101244511D01*
D26*
X167635000Y-95635000D02*
X168790000Y-96790000D01*
D25*
X197000000Y-97000000D02*
X197000000Y-89540000D01*
X190755489Y-101244511D02*
X190755489Y-99677399D01*
X189744511Y-105744511D02*
X189744511Y-111255489D01*
X171000000Y-106000000D02*
X168790000Y-103790000D01*
D26*
X168790000Y-96790000D02*
X168790000Y-100055000D01*
D25*
X197000000Y-89540000D02*
X194000000Y-86540000D01*
X188000000Y-104000000D02*
X189744511Y-105744511D01*
X189744511Y-111255489D02*
X188000000Y-113000000D01*
X168790000Y-103790000D02*
X168790000Y-100055000D01*
X190755489Y-99677399D02*
X193432888Y-97000000D01*
D29*
%TO.N,Net-(D4-Pad1)*%
X193000000Y-90000000D02*
X194000000Y-91000000D01*
X189912500Y-90000000D02*
X193000000Y-90000000D01*
D25*
%TO.N,VCC*%
X178000000Y-85000000D02*
X183000000Y-85000000D01*
X174750000Y-98000000D02*
X177250000Y-100500000D01*
X189540000Y-93540000D02*
X194000000Y-93540000D01*
D26*
X164000000Y-87175000D02*
X164175000Y-87000000D01*
D25*
X177675489Y-85324511D02*
X178000000Y-85000000D01*
X186000000Y-90000000D02*
X189540000Y-93540000D01*
D26*
X162500000Y-90000000D02*
X162000000Y-89500000D01*
D25*
X174625000Y-98000000D02*
X174750000Y-98000000D01*
D26*
X165095000Y-89095000D02*
X164000000Y-88000000D01*
D25*
X183500000Y-100400000D02*
X177675489Y-94575489D01*
D26*
X163000000Y-87000000D02*
X164175000Y-87000000D01*
D25*
X183000000Y-85000000D02*
X186000000Y-88000000D01*
D26*
X164000000Y-88000000D02*
X164000000Y-87175000D01*
D25*
X186000000Y-88000000D02*
X186000000Y-90000000D01*
D26*
X164175000Y-87000000D02*
X163940030Y-87000000D01*
X162000000Y-88000000D02*
X163000000Y-87000000D01*
D25*
X183400000Y-100500000D02*
X183500000Y-100400000D01*
X177675489Y-94575489D02*
X177675489Y-85324511D01*
D28*
X172545000Y-111355000D02*
X172545000Y-120000000D01*
D26*
X165095000Y-89525000D02*
X165095000Y-89095000D01*
D25*
X174625000Y-97875000D02*
X171225000Y-94475000D01*
X174625000Y-98000000D02*
X174625000Y-97875000D01*
D28*
X183500000Y-100400000D02*
X172545000Y-111355000D01*
D25*
X171225000Y-94475000D02*
X168905000Y-94475000D01*
X177250000Y-100500000D02*
X183400000Y-100500000D01*
D26*
X162000000Y-89500000D02*
X162000000Y-88000000D01*
D28*
%TO.N,Net-(J1-Pad1)*%
X183500000Y-116955000D02*
X186545000Y-120000000D01*
X183500000Y-107600000D02*
X183500000Y-116955000D01*
%TO.N,Net-(D5-Pad2)*%
X166250000Y-100055000D02*
X166250000Y-118785000D01*
X166250000Y-118785000D02*
X167465000Y-120000000D01*
D26*
%TO.N,Net-(R2-Pad2)*%
X166365000Y-87365000D02*
X166000000Y-87000000D01*
X166365000Y-89525000D02*
X166365000Y-87365000D01*
%TD*%
%TA.AperFunction,Conductor*%
%TO.N,GND*%
G36*
X195422881Y-76528002D02*
G01*
X195469374Y-76581658D01*
X195479478Y-76651932D01*
X195451883Y-76714229D01*
X195449194Y-76717062D01*
X195289428Y-76939400D01*
X195161314Y-77181364D01*
X195067225Y-77438477D01*
X195008899Y-77705980D01*
X194987418Y-77978924D01*
X194987835Y-77986150D01*
X195003179Y-78252257D01*
X195004004Y-78256462D01*
X195004005Y-78256470D01*
X195032848Y-78403483D01*
X195055889Y-78520923D01*
X195057276Y-78524974D01*
X195075275Y-78577544D01*
X195144573Y-78779950D01*
X195146499Y-78783779D01*
X195209495Y-78909032D01*
X195267591Y-79024544D01*
X195270017Y-79028073D01*
X195270020Y-79028079D01*
X195304642Y-79078454D01*
X195422666Y-79250179D01*
X195606929Y-79452681D01*
X195816969Y-79628302D01*
X195820595Y-79630577D01*
X195820597Y-79630578D01*
X195870703Y-79662009D01*
X196048901Y-79773792D01*
X196052803Y-79775554D01*
X196052807Y-79775556D01*
X196294520Y-79884694D01*
X196294524Y-79884696D01*
X196298432Y-79886460D01*
X196302551Y-79887680D01*
X196556832Y-79963002D01*
X196556837Y-79963003D01*
X196560945Y-79964220D01*
X196565179Y-79964868D01*
X196565184Y-79964869D01*
X196827340Y-80004984D01*
X196827342Y-80004984D01*
X196831582Y-80005633D01*
X196970913Y-80007822D01*
X197101045Y-80009867D01*
X197101051Y-80009867D01*
X197105336Y-80009934D01*
X197377141Y-79977042D01*
X197641967Y-79907566D01*
X197894914Y-79802792D01*
X198131301Y-79664658D01*
X198288253Y-79541592D01*
X198354202Y-79515300D01*
X198423897Y-79528835D01*
X198475209Y-79577902D01*
X198492000Y-79640746D01*
X198492000Y-123360343D01*
X198471998Y-123428464D01*
X198418342Y-123474957D01*
X198348068Y-123485061D01*
X198286194Y-123457847D01*
X198169233Y-123362114D01*
X198169226Y-123362109D01*
X198165915Y-123359399D01*
X197932472Y-123216345D01*
X197928555Y-123214626D01*
X197928552Y-123214624D01*
X197818232Y-123166197D01*
X197681775Y-123106297D01*
X197677647Y-123105121D01*
X197677644Y-123105120D01*
X197596557Y-123082022D01*
X197418462Y-123031290D01*
X197414220Y-123030686D01*
X197414214Y-123030685D01*
X197215596Y-123002418D01*
X197147406Y-122992713D01*
X197003671Y-122991961D01*
X196877908Y-122991302D01*
X196877902Y-122991302D01*
X196873622Y-122991280D01*
X196869378Y-122991839D01*
X196869374Y-122991839D01*
X196750397Y-123007503D01*
X196602177Y-123027016D01*
X196598037Y-123028149D01*
X196598035Y-123028149D01*
X196582251Y-123032467D01*
X196338093Y-123099261D01*
X196086257Y-123206678D01*
X195851329Y-123347280D01*
X195847978Y-123349964D01*
X195847976Y-123349966D01*
X195832813Y-123362114D01*
X195637657Y-123518463D01*
X195449194Y-123717062D01*
X195289428Y-123939400D01*
X195161314Y-124181364D01*
X195067225Y-124438477D01*
X195008899Y-124705980D01*
X194987418Y-124978924D01*
X194987835Y-124986150D01*
X195003179Y-125252257D01*
X195004004Y-125256462D01*
X195004005Y-125256470D01*
X195032848Y-125403483D01*
X195055889Y-125520923D01*
X195057276Y-125524974D01*
X195075275Y-125577544D01*
X195144573Y-125779950D01*
X195146499Y-125783779D01*
X195209495Y-125909032D01*
X195267591Y-126024544D01*
X195270017Y-126028073D01*
X195270020Y-126028079D01*
X195375436Y-126181459D01*
X195422666Y-126250179D01*
X195425553Y-126253352D01*
X195425554Y-126253353D01*
X195450893Y-126281200D01*
X195481945Y-126345046D01*
X195473550Y-126415545D01*
X195428374Y-126470313D01*
X195357700Y-126492000D01*
X159644491Y-126492000D01*
X159576370Y-126471998D01*
X159529877Y-126418342D01*
X159519773Y-126348068D01*
X159542944Y-126291407D01*
X159696830Y-126081916D01*
X159696837Y-126081905D01*
X159699372Y-126078454D01*
X159701418Y-126074686D01*
X159827962Y-125841621D01*
X159827963Y-125841619D01*
X159830012Y-125837845D01*
X159926789Y-125581732D01*
X159987912Y-125314854D01*
X160000031Y-125179075D01*
X160012031Y-125044616D01*
X160012251Y-125042151D01*
X160012692Y-125000000D01*
X160010964Y-124974653D01*
X159994362Y-124731123D01*
X159994361Y-124731117D01*
X159994070Y-124726846D01*
X159938550Y-124458747D01*
X159847157Y-124200664D01*
X159839277Y-124185395D01*
X159723550Y-123961178D01*
X159723549Y-123961177D01*
X159721585Y-123957371D01*
X159719122Y-123953866D01*
X159566619Y-123736877D01*
X159566614Y-123736871D01*
X159564155Y-123733372D01*
X159377782Y-123532811D01*
X159374466Y-123530097D01*
X159374463Y-123530094D01*
X159169233Y-123362114D01*
X159169226Y-123362109D01*
X159165915Y-123359399D01*
X158932472Y-123216345D01*
X158928555Y-123214626D01*
X158928552Y-123214624D01*
X158818232Y-123166197D01*
X158681775Y-123106297D01*
X158677647Y-123105121D01*
X158677644Y-123105120D01*
X158596557Y-123082022D01*
X158418462Y-123031290D01*
X158414220Y-123030686D01*
X158414214Y-123030685D01*
X158215596Y-123002418D01*
X158147406Y-122992713D01*
X158003671Y-122991961D01*
X157877908Y-122991302D01*
X157877902Y-122991302D01*
X157873622Y-122991280D01*
X157869378Y-122991839D01*
X157869374Y-122991839D01*
X157750397Y-123007503D01*
X157602177Y-123027016D01*
X157598037Y-123028149D01*
X157598035Y-123028149D01*
X157582251Y-123032467D01*
X157338093Y-123099261D01*
X157086257Y-123206678D01*
X156851329Y-123347280D01*
X156847978Y-123349964D01*
X156847976Y-123349966D01*
X156712780Y-123458278D01*
X156647111Y-123485260D01*
X156577278Y-123472455D01*
X156525455Y-123423928D01*
X156508000Y-123359944D01*
X156508000Y-100325111D01*
X162262798Y-100325111D01*
X162263751Y-100336704D01*
X162265433Y-100346866D01*
X162321422Y-100569771D01*
X162324741Y-100579519D01*
X162416385Y-100790289D01*
X162421251Y-100799364D01*
X162546085Y-100992327D01*
X162552378Y-101000498D01*
X162707050Y-101170480D01*
X162714583Y-101177506D01*
X162894944Y-101319945D01*
X162903531Y-101325650D01*
X163104722Y-101436714D01*
X163114134Y-101440944D01*
X163330768Y-101517659D01*
X163340739Y-101520293D01*
X163438163Y-101537647D01*
X163451460Y-101536187D01*
X163456000Y-101521630D01*
X163456000Y-100327115D01*
X163451525Y-100311876D01*
X163450135Y-100310671D01*
X163442452Y-100309000D01*
X162279588Y-100309000D01*
X162264859Y-100313325D01*
X162262798Y-100325111D01*
X156508000Y-100325111D01*
X156508000Y-99782987D01*
X162265099Y-99782987D01*
X162267747Y-99797608D01*
X162280124Y-99801000D01*
X163437885Y-99801000D01*
X163453124Y-99796525D01*
X163454329Y-99795135D01*
X163456000Y-99787452D01*
X163456000Y-98586904D01*
X163452082Y-98573560D01*
X163437806Y-98571573D01*
X163375485Y-98581110D01*
X163365457Y-98583499D01*
X163147012Y-98654898D01*
X163137503Y-98658895D01*
X162933656Y-98765011D01*
X162924931Y-98770505D01*
X162741148Y-98908493D01*
X162733441Y-98915336D01*
X162574661Y-99081491D01*
X162568174Y-99089501D01*
X162438670Y-99279347D01*
X162433571Y-99288321D01*
X162336813Y-99496769D01*
X162333250Y-99506456D01*
X162271835Y-99727908D01*
X162269904Y-99738030D01*
X162265099Y-99782987D01*
X156508000Y-99782987D01*
X156508000Y-97283766D01*
X162954500Y-97283766D01*
X162954837Y-97290282D01*
X162964575Y-97384132D01*
X162967468Y-97397528D01*
X163017988Y-97548953D01*
X163024153Y-97562115D01*
X163107926Y-97697492D01*
X163116960Y-97708890D01*
X163229629Y-97821363D01*
X163241040Y-97830375D01*
X163376563Y-97913912D01*
X163389741Y-97920056D01*
X163541266Y-97970315D01*
X163554632Y-97973181D01*
X163647270Y-97982672D01*
X163653685Y-97983000D01*
X163727885Y-97983000D01*
X163743124Y-97978525D01*
X163744329Y-97977135D01*
X163746000Y-97969452D01*
X163746000Y-97272115D01*
X163741525Y-97256876D01*
X163740135Y-97255671D01*
X163732452Y-97254000D01*
X162972615Y-97254000D01*
X162957376Y-97258475D01*
X162956171Y-97259865D01*
X162954500Y-97267548D01*
X162954500Y-97283766D01*
X156508000Y-97283766D01*
X156508000Y-96727885D01*
X162954500Y-96727885D01*
X162958975Y-96743124D01*
X162960365Y-96744329D01*
X162968048Y-96746000D01*
X163727885Y-96746000D01*
X163743124Y-96741525D01*
X163744329Y-96740135D01*
X163746000Y-96732452D01*
X163746000Y-96035115D01*
X163741525Y-96019876D01*
X163740135Y-96018671D01*
X163732452Y-96017000D01*
X163653734Y-96017000D01*
X163647218Y-96017337D01*
X163553368Y-96027075D01*
X163539972Y-96029968D01*
X163388547Y-96080488D01*
X163375385Y-96086653D01*
X163240008Y-96170426D01*
X163228610Y-96179460D01*
X163116137Y-96292129D01*
X163107125Y-96303540D01*
X163023588Y-96439063D01*
X163017444Y-96452241D01*
X162967185Y-96603766D01*
X162964319Y-96617132D01*
X162954828Y-96709770D01*
X162954500Y-96716185D01*
X162954500Y-96727885D01*
X156508000Y-96727885D01*
X156508000Y-87979152D01*
X161336594Y-87979152D01*
X161337340Y-87987043D01*
X161340941Y-88025138D01*
X161341500Y-88036996D01*
X161341500Y-89417944D01*
X161340941Y-89429800D01*
X161339212Y-89437537D01*
X161339461Y-89445459D01*
X161341438Y-89508369D01*
X161341500Y-89512327D01*
X161341500Y-89541432D01*
X161342056Y-89545832D01*
X161342988Y-89557664D01*
X161344438Y-89603831D01*
X161346650Y-89611444D01*
X161346650Y-89611445D01*
X161350419Y-89624416D01*
X161354430Y-89643782D01*
X161357118Y-89665064D01*
X161360034Y-89672429D01*
X161360035Y-89672433D01*
X161374126Y-89708021D01*
X161377965Y-89719231D01*
X161390855Y-89763600D01*
X161401775Y-89782065D01*
X161410466Y-89799805D01*
X161418365Y-89819756D01*
X161445516Y-89857126D01*
X161452033Y-89867048D01*
X161471507Y-89899977D01*
X161471510Y-89899981D01*
X161475547Y-89906807D01*
X161490711Y-89921971D01*
X161503551Y-89937004D01*
X161516159Y-89954357D01*
X161548319Y-89980962D01*
X161588058Y-90039796D01*
X161593314Y-90064876D01*
X161606458Y-90189928D01*
X161665473Y-90371556D01*
X161760960Y-90536944D01*
X161888747Y-90678866D01*
X161943794Y-90718860D01*
X162025884Y-90778502D01*
X162043248Y-90791118D01*
X162049276Y-90793802D01*
X162049278Y-90793803D01*
X162211681Y-90866109D01*
X162217712Y-90868794D01*
X162291603Y-90884500D01*
X162398056Y-90907128D01*
X162398061Y-90907128D01*
X162404513Y-90908500D01*
X162595487Y-90908500D01*
X162601939Y-90907128D01*
X162601944Y-90907128D01*
X162708397Y-90884500D01*
X162782288Y-90868794D01*
X162788319Y-90866109D01*
X162950722Y-90793803D01*
X162950724Y-90793802D01*
X162956752Y-90791118D01*
X162974117Y-90778502D01*
X163056206Y-90718860D01*
X163111253Y-90678866D01*
X163239040Y-90536944D01*
X163334527Y-90371556D01*
X163393542Y-90189928D01*
X163413504Y-90000000D01*
X163406290Y-89931364D01*
X163394232Y-89816635D01*
X163394232Y-89816633D01*
X163393542Y-89810072D01*
X163334527Y-89628444D01*
X163329339Y-89619457D01*
X163266772Y-89511089D01*
X163239040Y-89463056D01*
X163222855Y-89445080D01*
X163115675Y-89326045D01*
X163115674Y-89326044D01*
X163111253Y-89321134D01*
X162974308Y-89221637D01*
X162962094Y-89212763D01*
X162962093Y-89212762D01*
X162956752Y-89208882D01*
X162950724Y-89206198D01*
X162950722Y-89206197D01*
X162788319Y-89133891D01*
X162788318Y-89133891D01*
X162782288Y-89131206D01*
X162775833Y-89129834D01*
X162775830Y-89129833D01*
X162758304Y-89126108D01*
X162695830Y-89092380D01*
X162661509Y-89030231D01*
X162658500Y-89002861D01*
X162658500Y-88324950D01*
X162678502Y-88256829D01*
X162695405Y-88235855D01*
X163126405Y-87804855D01*
X163188717Y-87770829D01*
X163259532Y-87775894D01*
X163316368Y-87818441D01*
X163341179Y-87884961D01*
X163341500Y-87893950D01*
X163341500Y-87917944D01*
X163340941Y-87929800D01*
X163339212Y-87937537D01*
X163339720Y-87953694D01*
X163341438Y-88008369D01*
X163341500Y-88012327D01*
X163341500Y-88041432D01*
X163342056Y-88045832D01*
X163342988Y-88057664D01*
X163344438Y-88103831D01*
X163346650Y-88111444D01*
X163346650Y-88111445D01*
X163350419Y-88124416D01*
X163354430Y-88143782D01*
X163357118Y-88165064D01*
X163360034Y-88172429D01*
X163360035Y-88172433D01*
X163374126Y-88208021D01*
X163377965Y-88219231D01*
X163390855Y-88263600D01*
X163401775Y-88282065D01*
X163410466Y-88299805D01*
X163418365Y-88319756D01*
X163425119Y-88329052D01*
X163445516Y-88357126D01*
X163452033Y-88367048D01*
X163471507Y-88399977D01*
X163471510Y-88399981D01*
X163475547Y-88406807D01*
X163490711Y-88421971D01*
X163503551Y-88437004D01*
X163516159Y-88454357D01*
X163551752Y-88483802D01*
X163560532Y-88491792D01*
X164249595Y-89180855D01*
X164283621Y-89243167D01*
X164286500Y-89269950D01*
X164286500Y-90416502D01*
X164289438Y-90453831D01*
X164335855Y-90613601D01*
X164339892Y-90620427D01*
X164416509Y-90749980D01*
X164416511Y-90749983D01*
X164420547Y-90756807D01*
X164538193Y-90874453D01*
X164545017Y-90878489D01*
X164545020Y-90878491D01*
X164612180Y-90918209D01*
X164681399Y-90959145D01*
X164689010Y-90961356D01*
X164689012Y-90961357D01*
X164750653Y-90979265D01*
X164810488Y-91017478D01*
X164840166Y-91081974D01*
X164841500Y-91100262D01*
X164841500Y-92900259D01*
X164821498Y-92968380D01*
X164767842Y-93014873D01*
X164750653Y-93021256D01*
X164689212Y-93039106D01*
X164674779Y-93045352D01*
X164545322Y-93121911D01*
X164532896Y-93131551D01*
X164426551Y-93237896D01*
X164416911Y-93250322D01*
X164340352Y-93379779D01*
X164334107Y-93394210D01*
X164291731Y-93540065D01*
X164289430Y-93552667D01*
X164287193Y-93581084D01*
X164287000Y-93586014D01*
X164287000Y-94202885D01*
X164291475Y-94218124D01*
X164292865Y-94219329D01*
X164300548Y-94221000D01*
X165223000Y-94221000D01*
X165291121Y-94241002D01*
X165337614Y-94294658D01*
X165349000Y-94347000D01*
X165349000Y-94603000D01*
X165328998Y-94671121D01*
X165275342Y-94717614D01*
X165223000Y-94729000D01*
X164305116Y-94729000D01*
X164289877Y-94733475D01*
X164288672Y-94734865D01*
X164287001Y-94742548D01*
X164287001Y-95363984D01*
X164287195Y-95368920D01*
X164289430Y-95397336D01*
X164291730Y-95409931D01*
X164334107Y-95555790D01*
X164340352Y-95570221D01*
X164416911Y-95699678D01*
X164426551Y-95712104D01*
X164524490Y-95810043D01*
X164558516Y-95872355D01*
X164553451Y-95943170D01*
X164510904Y-96000006D01*
X164444384Y-96024817D01*
X164422552Y-96024482D01*
X164352730Y-96017328D01*
X164346315Y-96017000D01*
X164272115Y-96017000D01*
X164256876Y-96021475D01*
X164255671Y-96022865D01*
X164254000Y-96030548D01*
X164254000Y-97964885D01*
X164258475Y-97980124D01*
X164259865Y-97981329D01*
X164267548Y-97983000D01*
X164346266Y-97983000D01*
X164352782Y-97982663D01*
X164446632Y-97972925D01*
X164460028Y-97970032D01*
X164611453Y-97919512D01*
X164624615Y-97913347D01*
X164759992Y-97829574D01*
X164771394Y-97820536D01*
X164773067Y-97818861D01*
X164774493Y-97818081D01*
X164777127Y-97815993D01*
X164777484Y-97816444D01*
X164835349Y-97784781D01*
X164906169Y-97789784D01*
X164951254Y-97818701D01*
X164953093Y-97820536D01*
X164959497Y-97826929D01*
X164965727Y-97830769D01*
X164965728Y-97830770D01*
X165051272Y-97883500D01*
X165107580Y-97918209D01*
X165272691Y-97972974D01*
X165279527Y-97973674D01*
X165279530Y-97973675D01*
X165326870Y-97978525D01*
X165375428Y-97983500D01*
X166074572Y-97983500D01*
X166077818Y-97983163D01*
X166077822Y-97983163D01*
X166171735Y-97973419D01*
X166171739Y-97973418D01*
X166178593Y-97972707D01*
X166185129Y-97970526D01*
X166185131Y-97970526D01*
X166317895Y-97926232D01*
X166343607Y-97917654D01*
X166489918Y-97827114D01*
X166558370Y-97808276D01*
X166626140Y-97829437D01*
X166662937Y-97873020D01*
X166665473Y-97871556D01*
X166760960Y-98036944D01*
X166765378Y-98041851D01*
X166765379Y-98041852D01*
X166872979Y-98161354D01*
X166903697Y-98225361D01*
X166894932Y-98295815D01*
X166849469Y-98350346D01*
X166781742Y-98371641D01*
X166740931Y-98365666D01*
X166661665Y-98340293D01*
X166403693Y-98298279D01*
X166289942Y-98296790D01*
X166147022Y-98294919D01*
X166147019Y-98294919D01*
X166142345Y-98294858D01*
X165883362Y-98330104D01*
X165632433Y-98403243D01*
X165628180Y-98405203D01*
X165628179Y-98405204D01*
X165595000Y-98420500D01*
X165395072Y-98512668D01*
X165358045Y-98536944D01*
X165180404Y-98653410D01*
X165180399Y-98653414D01*
X165176491Y-98655976D01*
X164981494Y-98830018D01*
X164978505Y-98833612D01*
X164978500Y-98833617D01*
X164898177Y-98930195D01*
X164839240Y-98969779D01*
X164768258Y-98971215D01*
X164715374Y-98941779D01*
X164705417Y-98932495D01*
X164525056Y-98790055D01*
X164516469Y-98784350D01*
X164315278Y-98673286D01*
X164305866Y-98669056D01*
X164089232Y-98592341D01*
X164079261Y-98589707D01*
X163981837Y-98572353D01*
X163968540Y-98573813D01*
X163964000Y-98588370D01*
X163964000Y-101523096D01*
X163967918Y-101536440D01*
X163982194Y-101538427D01*
X164044515Y-101528890D01*
X164054543Y-101526501D01*
X164272988Y-101455102D01*
X164282497Y-101451105D01*
X164307320Y-101438183D01*
X164376979Y-101424470D01*
X164442994Y-101450595D01*
X164484406Y-101508263D01*
X164491500Y-101549946D01*
X164491500Y-108715500D01*
X164471498Y-108783621D01*
X164417842Y-108830114D01*
X164365500Y-108841500D01*
X163701866Y-108841500D01*
X163639684Y-108848255D01*
X163503295Y-108899385D01*
X163386739Y-108986739D01*
X163299385Y-109103295D01*
X163248255Y-109239684D01*
X163241500Y-109301866D01*
X163241500Y-112698134D01*
X163248255Y-112760316D01*
X163299385Y-112896705D01*
X163386739Y-113013261D01*
X163503295Y-113100615D01*
X163639684Y-113151745D01*
X163701866Y-113158500D01*
X164365500Y-113158500D01*
X164433621Y-113178502D01*
X164480114Y-113232158D01*
X164491500Y-113284500D01*
X164491500Y-118730103D01*
X164491297Y-118737246D01*
X164487103Y-118811100D01*
X164487103Y-118811107D01*
X164486838Y-118815776D01*
X164487267Y-118820440D01*
X164497287Y-118929489D01*
X164497469Y-118931668D01*
X164505939Y-119045652D01*
X164506971Y-119050211D01*
X164507516Y-119052619D01*
X164510097Y-119068911D01*
X164510753Y-119076050D01*
X164511865Y-119080594D01*
X164537914Y-119187051D01*
X164538418Y-119189190D01*
X164563623Y-119300577D01*
X164565314Y-119304926D01*
X164565317Y-119304935D01*
X164566218Y-119307251D01*
X164571172Y-119322964D01*
X164572877Y-119329930D01*
X164574652Y-119334267D01*
X164574652Y-119334269D01*
X164616141Y-119435683D01*
X164616956Y-119437725D01*
X164626414Y-119462045D01*
X164658353Y-119544177D01*
X164660674Y-119548238D01*
X164661910Y-119550401D01*
X164669131Y-119565206D01*
X164671845Y-119571839D01*
X164730288Y-119670075D01*
X164731352Y-119671899D01*
X164767297Y-119734789D01*
X164788049Y-119771098D01*
X164792481Y-119776720D01*
X164801809Y-119790291D01*
X164805481Y-119796463D01*
X164808428Y-119800071D01*
X164808433Y-119800077D01*
X164877790Y-119884965D01*
X164879166Y-119886680D01*
X164944239Y-119969224D01*
X164949862Y-119976357D01*
X164978355Y-120003160D01*
X165026053Y-120048030D01*
X165028815Y-120050710D01*
X166128540Y-121150434D01*
X166132267Y-121154430D01*
X166134122Y-121156915D01*
X166149086Y-121171749D01*
X166237460Y-121259355D01*
X166237849Y-121259743D01*
X166268472Y-121290366D01*
X166269961Y-121291649D01*
X166272307Y-121293899D01*
X166319743Y-121340923D01*
X166323505Y-121343681D01*
X166323508Y-121343684D01*
X166350977Y-121363825D01*
X166356283Y-121367715D01*
X166365419Y-121374414D01*
X166373159Y-121380570D01*
X166416071Y-121417546D01*
X166420023Y-121420040D01*
X166420025Y-121420041D01*
X166470932Y-121452161D01*
X166478199Y-121457108D01*
X166530524Y-121495474D01*
X166549986Y-121505713D01*
X166580654Y-121521848D01*
X166589222Y-121526795D01*
X166637119Y-121557016D01*
X166647810Y-121561720D01*
X166696494Y-121583142D01*
X166704414Y-121586962D01*
X166757699Y-121614997D01*
X166757705Y-121614999D01*
X166761834Y-121617172D01*
X166815311Y-121635847D01*
X166824501Y-121639467D01*
X166876354Y-121662283D01*
X166880858Y-121663511D01*
X166880861Y-121663512D01*
X166938936Y-121679345D01*
X166947335Y-121681953D01*
X166998461Y-121699807D01*
X167008590Y-121703344D01*
X167013184Y-121704216D01*
X167013187Y-121704217D01*
X167064239Y-121713909D01*
X167073882Y-121716135D01*
X167128521Y-121731032D01*
X167192954Y-121738658D01*
X167201646Y-121739996D01*
X167260785Y-121751224D01*
X167260788Y-121751224D01*
X167265374Y-121752095D01*
X167321969Y-121754319D01*
X167331808Y-121755093D01*
X167388080Y-121761753D01*
X167412974Y-121760992D01*
X167452919Y-121759772D01*
X167461713Y-121759810D01*
X167521874Y-121762174D01*
X167521880Y-121762174D01*
X167526543Y-121762357D01*
X167561761Y-121758500D01*
X167582855Y-121756190D01*
X167592723Y-121755500D01*
X167635034Y-121754207D01*
X167649328Y-121753770D01*
X167697236Y-121745107D01*
X167713156Y-121742229D01*
X167721856Y-121740967D01*
X167781715Y-121734411D01*
X167781718Y-121734410D01*
X167786360Y-121733902D01*
X167841133Y-121719482D01*
X167850790Y-121717341D01*
X167857459Y-121716135D01*
X167906528Y-121707262D01*
X167967984Y-121686400D01*
X167976379Y-121683874D01*
X168039117Y-121667357D01*
X168091166Y-121644995D01*
X168100391Y-121641454D01*
X168116918Y-121635844D01*
X168149598Y-121624751D01*
X168149604Y-121624748D01*
X168154027Y-121623247D01*
X168211715Y-121593536D01*
X168219649Y-121589794D01*
X168274964Y-121566029D01*
X168274969Y-121566027D01*
X168279262Y-121564182D01*
X168327428Y-121534376D01*
X168336039Y-121529504D01*
X168382233Y-121505713D01*
X168382238Y-121505710D01*
X168386389Y-121503572D01*
X168390183Y-121500841D01*
X168390189Y-121500837D01*
X168439031Y-121465676D01*
X168446344Y-121460789D01*
X168497549Y-121429103D01*
X168497552Y-121429101D01*
X168501519Y-121426646D01*
X168544759Y-121390041D01*
X168552540Y-121383961D01*
X168598512Y-121350866D01*
X168601867Y-121347598D01*
X168644980Y-121305599D01*
X168651480Y-121299694D01*
X168701005Y-121257768D01*
X168704085Y-121254256D01*
X168704090Y-121254251D01*
X168738354Y-121215180D01*
X168745156Y-121208011D01*
X168785732Y-121168484D01*
X168824998Y-121116847D01*
X168830562Y-121110037D01*
X168870249Y-121064782D01*
X168873339Y-121061259D01*
X168903982Y-121013620D01*
X168909650Y-121005525D01*
X168941104Y-120964160D01*
X168943938Y-120960433D01*
X168975153Y-120903535D01*
X168979623Y-120896021D01*
X169014733Y-120841437D01*
X169037998Y-120789791D01*
X169042411Y-120780939D01*
X169069654Y-120731282D01*
X169092110Y-120670413D01*
X169095438Y-120662279D01*
X169120162Y-120607393D01*
X169122083Y-120603129D01*
X169137459Y-120548611D01*
X169140516Y-120539204D01*
X169158496Y-120490465D01*
X169158496Y-120490463D01*
X169160118Y-120486068D01*
X169173334Y-120422531D01*
X169175418Y-120414020D01*
X169193030Y-120351572D01*
X169200179Y-120295377D01*
X169201809Y-120285638D01*
X169213345Y-120230174D01*
X169217022Y-120165412D01*
X169217826Y-120156654D01*
X169225616Y-120095421D01*
X169225616Y-120095417D01*
X169226014Y-120092291D01*
X169228431Y-120000000D01*
X169228197Y-119996854D01*
X169228197Y-119996844D01*
X169227900Y-119992853D01*
X169227756Y-119976373D01*
X169228162Y-119969224D01*
X169217712Y-119855497D01*
X169217530Y-119853319D01*
X169209407Y-119744007D01*
X169209061Y-119739348D01*
X169207483Y-119732376D01*
X169204903Y-119716089D01*
X169204247Y-119708950D01*
X169203137Y-119704416D01*
X169203136Y-119704407D01*
X169177081Y-119597930D01*
X169176577Y-119595790D01*
X169152408Y-119488980D01*
X169151377Y-119484423D01*
X169148781Y-119477748D01*
X169143831Y-119462045D01*
X169143236Y-119459614D01*
X169143233Y-119459604D01*
X169142123Y-119455069D01*
X169098828Y-119349243D01*
X169098031Y-119347244D01*
X169088589Y-119322964D01*
X169056647Y-119240823D01*
X169053090Y-119234599D01*
X169045869Y-119219794D01*
X169043155Y-119213161D01*
X168984751Y-119114992D01*
X168983644Y-119113094D01*
X168929273Y-119017964D01*
X168929271Y-119017960D01*
X168926951Y-119013902D01*
X168922516Y-119008276D01*
X168913183Y-118994697D01*
X168911906Y-118992551D01*
X168909518Y-118988537D01*
X168880699Y-118953264D01*
X168837266Y-118900105D01*
X168835889Y-118898390D01*
X168810973Y-118866785D01*
X168765138Y-118808643D01*
X168688948Y-118736971D01*
X168686186Y-118734292D01*
X168045404Y-118093509D01*
X168011379Y-118031197D01*
X168008500Y-118004414D01*
X168008500Y-113284500D01*
X168028502Y-113216379D01*
X168082158Y-113169886D01*
X168134500Y-113158500D01*
X168298134Y-113158500D01*
X168360316Y-113151745D01*
X168496705Y-113100615D01*
X168613261Y-113013261D01*
X168700615Y-112896705D01*
X168751745Y-112760316D01*
X168758500Y-112698134D01*
X168758500Y-109301866D01*
X168751745Y-109239684D01*
X168700615Y-109103295D01*
X168613261Y-108986739D01*
X168496705Y-108899385D01*
X168360316Y-108848255D01*
X168298134Y-108841500D01*
X168134500Y-108841500D01*
X168066379Y-108821498D01*
X168019886Y-108767842D01*
X168008500Y-108715500D01*
X168008500Y-104562148D01*
X168028502Y-104494027D01*
X168082158Y-104447534D01*
X168152432Y-104437430D01*
X168217012Y-104466924D01*
X168223595Y-104473053D01*
X170212994Y-106462452D01*
X170233018Y-106488547D01*
X170260960Y-106536944D01*
X170265378Y-106541851D01*
X170265379Y-106541852D01*
X170370646Y-106658763D01*
X170388747Y-106678866D01*
X170543248Y-106791118D01*
X170549276Y-106793802D01*
X170549278Y-106793803D01*
X170711681Y-106866109D01*
X170717712Y-106868794D01*
X170811113Y-106888647D01*
X170898056Y-106907128D01*
X170898061Y-106907128D01*
X170904513Y-106908500D01*
X171095487Y-106908500D01*
X171101939Y-106907128D01*
X171101944Y-106907128D01*
X171188887Y-106888647D01*
X171282288Y-106868794D01*
X171288319Y-106866109D01*
X171450722Y-106793803D01*
X171450724Y-106793802D01*
X171456752Y-106791118D01*
X171611253Y-106678866D01*
X171629354Y-106658763D01*
X171734621Y-106541852D01*
X171734622Y-106541851D01*
X171739040Y-106536944D01*
X171834527Y-106371556D01*
X171893542Y-106189928D01*
X171901894Y-106110469D01*
X171912814Y-106006565D01*
X171913504Y-106000000D01*
X171909823Y-105964975D01*
X171894232Y-105816635D01*
X171894232Y-105816633D01*
X171893542Y-105810072D01*
X171834527Y-105628444D01*
X171825111Y-105612134D01*
X171783611Y-105540255D01*
X171739040Y-105463056D01*
X171700507Y-105420260D01*
X171615675Y-105326045D01*
X171615674Y-105326044D01*
X171611253Y-105321134D01*
X171470578Y-105218927D01*
X171455545Y-105206087D01*
X169710405Y-103460947D01*
X169676379Y-103398635D01*
X169673500Y-103371852D01*
X169673500Y-101689020D01*
X169693502Y-101620899D01*
X169747158Y-101574406D01*
X169790656Y-101563703D01*
X169790634Y-101563500D01*
X169794010Y-101563133D01*
X169794015Y-101563133D01*
X169814745Y-101560881D01*
X169852816Y-101556745D01*
X169989205Y-101505615D01*
X170105761Y-101418261D01*
X170193115Y-101301705D01*
X170244245Y-101165316D01*
X170251000Y-101103134D01*
X170251000Y-99006866D01*
X170244245Y-98944684D01*
X170193115Y-98808295D01*
X170105761Y-98691739D01*
X169989205Y-98604385D01*
X169852816Y-98553255D01*
X169790634Y-98546500D01*
X169574500Y-98546500D01*
X169506379Y-98526498D01*
X169459886Y-98472842D01*
X169448500Y-98420500D01*
X169448500Y-96872059D01*
X169449059Y-96860203D01*
X169450789Y-96852463D01*
X169448562Y-96781611D01*
X169448500Y-96777653D01*
X169448500Y-96748568D01*
X169447946Y-96744179D01*
X169447013Y-96732337D01*
X169446506Y-96716185D01*
X169445562Y-96686169D01*
X169439580Y-96665579D01*
X169435570Y-96646216D01*
X169433875Y-96632796D01*
X169433875Y-96632795D01*
X169432882Y-96624936D01*
X169429966Y-96617571D01*
X169429965Y-96617567D01*
X169415874Y-96581979D01*
X169412035Y-96570769D01*
X169399145Y-96526400D01*
X169388225Y-96507935D01*
X169379534Y-96490195D01*
X169371635Y-96470244D01*
X169344482Y-96432871D01*
X169337967Y-96422952D01*
X169318493Y-96390023D01*
X169318490Y-96390019D01*
X169314453Y-96383193D01*
X169299289Y-96368029D01*
X169286448Y-96352995D01*
X169278501Y-96342057D01*
X169273841Y-96335643D01*
X169238247Y-96306197D01*
X169229468Y-96298208D01*
X169098146Y-96166886D01*
X169064120Y-96104574D01*
X169069185Y-96033759D01*
X169111732Y-95976923D01*
X169159037Y-95956270D01*
X169158831Y-95955562D01*
X169164291Y-95953976D01*
X169164293Y-95953975D01*
X169165004Y-95953768D01*
X169165007Y-95953768D01*
X169310988Y-95911357D01*
X169310990Y-95911356D01*
X169318601Y-95909145D01*
X169350138Y-95890494D01*
X169454980Y-95828491D01*
X169454983Y-95828489D01*
X169461807Y-95824453D01*
X169579453Y-95706807D01*
X169583489Y-95699983D01*
X169583491Y-95699980D01*
X169660108Y-95570427D01*
X169664145Y-95563601D01*
X169666357Y-95555988D01*
X169697339Y-95449347D01*
X169735552Y-95389512D01*
X169800048Y-95359834D01*
X169818336Y-95358500D01*
X170806852Y-95358500D01*
X170874973Y-95378502D01*
X170895947Y-95395405D01*
X173729796Y-98229254D01*
X173760533Y-98279412D01*
X173790473Y-98371556D01*
X173793776Y-98377278D01*
X173793777Y-98377279D01*
X173809335Y-98404226D01*
X173885960Y-98536944D01*
X173890378Y-98541851D01*
X173890379Y-98541852D01*
X173989246Y-98651655D01*
X174013747Y-98678866D01*
X174112598Y-98750686D01*
X174158933Y-98784350D01*
X174168248Y-98791118D01*
X174174276Y-98793802D01*
X174174278Y-98793803D01*
X174182793Y-98797594D01*
X174342712Y-98868794D01*
X174349173Y-98870167D01*
X174352305Y-98871185D01*
X174402466Y-98901924D01*
X176569085Y-101068542D01*
X176581926Y-101083577D01*
X176585927Y-101089084D01*
X176585932Y-101089090D01*
X176589815Y-101094434D01*
X176594725Y-101098855D01*
X176594726Y-101098856D01*
X176639194Y-101138895D01*
X176643979Y-101143436D01*
X176658015Y-101157472D01*
X176660575Y-101159545D01*
X176660576Y-101159546D01*
X176673443Y-101169966D01*
X176678453Y-101174246D01*
X176722921Y-101214284D01*
X176722926Y-101214288D01*
X176727831Y-101218704D01*
X176733543Y-101222002D01*
X176733546Y-101222004D01*
X176739446Y-101225410D01*
X176755742Y-101236610D01*
X176766161Y-101245047D01*
X176825363Y-101275213D01*
X176831133Y-101278346D01*
X176882945Y-101308260D01*
X176882950Y-101308262D01*
X176888669Y-101311564D01*
X176894949Y-101313605D01*
X176894957Y-101313608D01*
X176901421Y-101315708D01*
X176919683Y-101323272D01*
X176925749Y-101326363D01*
X176925758Y-101326366D01*
X176931637Y-101329362D01*
X176938015Y-101331071D01*
X176995804Y-101346556D01*
X177002106Y-101348422D01*
X177065298Y-101368954D01*
X177078205Y-101370311D01*
X177078628Y-101370355D01*
X177098071Y-101373958D01*
X177111029Y-101377430D01*
X177117619Y-101377775D01*
X177117623Y-101377776D01*
X177161573Y-101380079D01*
X177177372Y-101380907D01*
X177183931Y-101381423D01*
X177203694Y-101383500D01*
X177223555Y-101383500D01*
X177230150Y-101383673D01*
X177289902Y-101386805D01*
X177289906Y-101386805D01*
X177296493Y-101387150D01*
X177309747Y-101385051D01*
X177329456Y-101383500D01*
X179725416Y-101383500D01*
X179793537Y-101403502D01*
X179840030Y-101457158D01*
X179850134Y-101527432D01*
X179820640Y-101592012D01*
X179814511Y-101598595D01*
X176209538Y-105203567D01*
X172608510Y-108804595D01*
X172546198Y-108838621D01*
X172519415Y-108841500D01*
X172501866Y-108841500D01*
X172439684Y-108848255D01*
X172303295Y-108899385D01*
X172186739Y-108986739D01*
X172099385Y-109103295D01*
X172048255Y-109239684D01*
X172041500Y-109301866D01*
X172041500Y-109319415D01*
X172021498Y-109387536D01*
X172004595Y-109408510D01*
X171340378Y-110072727D01*
X171335184Y-110077635D01*
X171276494Y-110130018D01*
X171273501Y-110133617D01*
X171203455Y-110217838D01*
X171202057Y-110219490D01*
X171127454Y-110306071D01*
X171124959Y-110310026D01*
X171123635Y-110312124D01*
X171113949Y-110325455D01*
X171112352Y-110327375D01*
X171112346Y-110327383D01*
X171109363Y-110330970D01*
X171106942Y-110334960D01*
X171050071Y-110428679D01*
X171048914Y-110430548D01*
X170987983Y-110527119D01*
X170986101Y-110531396D01*
X170986100Y-110531398D01*
X170985099Y-110533673D01*
X170977490Y-110548290D01*
X170973771Y-110554419D01*
X170971962Y-110558733D01*
X170929603Y-110659748D01*
X170928735Y-110661769D01*
X170882716Y-110766355D01*
X170881487Y-110770862D01*
X170881484Y-110770871D01*
X170880830Y-110773271D01*
X170875467Y-110788848D01*
X170872697Y-110795455D01*
X170844759Y-110905462D01*
X170844578Y-110906173D01*
X170844020Y-110908291D01*
X170813968Y-111018521D01*
X170813419Y-111023161D01*
X170813418Y-111023166D01*
X170813127Y-111025627D01*
X170810122Y-111041843D01*
X170808359Y-111048783D01*
X170807891Y-111053434D01*
X170796915Y-111162428D01*
X170796676Y-111164613D01*
X170790643Y-111215587D01*
X170783247Y-111278080D01*
X170784776Y-111328122D01*
X170786441Y-111382606D01*
X170786500Y-111386454D01*
X170786500Y-121298134D01*
X170793255Y-121360316D01*
X170844385Y-121496705D01*
X170931739Y-121613261D01*
X171048295Y-121700615D01*
X171184684Y-121751745D01*
X171246866Y-121758500D01*
X172526405Y-121758500D01*
X172528054Y-121758511D01*
X172647978Y-121760081D01*
X172647981Y-121760081D01*
X172652655Y-121760142D01*
X172657288Y-121759511D01*
X172661954Y-121759226D01*
X172661956Y-121759265D01*
X172673254Y-121758500D01*
X173843134Y-121758500D01*
X173905316Y-121751745D01*
X174041705Y-121700615D01*
X174158261Y-121613261D01*
X174245615Y-121496705D01*
X174278444Y-121409133D01*
X181330612Y-121409133D01*
X181339325Y-121420653D01*
X181437018Y-121492284D01*
X181444928Y-121497227D01*
X181667890Y-121614533D01*
X181676453Y-121618256D01*
X181914304Y-121701318D01*
X181923313Y-121703732D01*
X182170842Y-121750727D01*
X182180098Y-121751781D01*
X182431857Y-121761673D01*
X182441171Y-121761347D01*
X182691615Y-121733920D01*
X182700792Y-121732219D01*
X182944431Y-121668074D01*
X182953251Y-121665037D01*
X183184736Y-121565583D01*
X183193008Y-121561276D01*
X183407249Y-121428700D01*
X183414188Y-121423658D01*
X183422518Y-121411019D01*
X183416456Y-121400666D01*
X182387812Y-120372022D01*
X182373868Y-120364408D01*
X182372035Y-120364539D01*
X182365420Y-120368790D01*
X181337270Y-121396940D01*
X181330612Y-121409133D01*
X174278444Y-121409133D01*
X174296745Y-121360316D01*
X174303500Y-121298134D01*
X174303500Y-119958523D01*
X180612898Y-119958523D01*
X180624987Y-120210175D01*
X180626124Y-120219435D01*
X180675274Y-120466535D01*
X180677768Y-120475528D01*
X180762900Y-120712639D01*
X180766700Y-120721174D01*
X180885946Y-120943101D01*
X180890957Y-120950968D01*
X180954446Y-121035990D01*
X180965704Y-121044439D01*
X180978123Y-121037667D01*
X182002978Y-120012812D01*
X182010592Y-119998868D01*
X182010461Y-119997035D01*
X182006210Y-119990420D01*
X180976321Y-118960531D01*
X180963013Y-118953264D01*
X180952974Y-118960386D01*
X180942761Y-118972666D01*
X180937346Y-118980258D01*
X180806646Y-119195646D01*
X180802408Y-119203963D01*
X180704981Y-119436299D01*
X180702020Y-119445149D01*
X180640006Y-119689331D01*
X180638384Y-119698528D01*
X180613143Y-119949198D01*
X180612898Y-119958523D01*
X174303500Y-119958523D01*
X174303500Y-118588803D01*
X181328216Y-118588803D01*
X181332789Y-118598579D01*
X183774913Y-121040703D01*
X183787293Y-121047463D01*
X183795634Y-121041219D01*
X183921765Y-120845127D01*
X183926212Y-120836936D01*
X184029691Y-120607222D01*
X184032882Y-120598455D01*
X184101269Y-120355976D01*
X184103131Y-120346823D01*
X184104770Y-120333943D01*
X184133210Y-120268892D01*
X184192304Y-120229543D01*
X184263291Y-120228389D01*
X184318856Y-120260751D01*
X185348472Y-121290366D01*
X185496071Y-121417546D01*
X185717119Y-121557016D01*
X185726801Y-121561276D01*
X185823937Y-121604017D01*
X185848756Y-121618520D01*
X185958295Y-121700615D01*
X186094684Y-121751745D01*
X186156866Y-121758500D01*
X186433162Y-121758500D01*
X186447972Y-121759373D01*
X186468080Y-121761753D01*
X186572605Y-121758559D01*
X186576453Y-121758500D01*
X188753134Y-121758500D01*
X188815316Y-121751745D01*
X188951705Y-121700615D01*
X189068261Y-121613261D01*
X189155615Y-121496705D01*
X189206745Y-121360316D01*
X189213500Y-121298134D01*
X189213500Y-118701866D01*
X189206745Y-118639684D01*
X189155615Y-118503295D01*
X189068261Y-118386739D01*
X188951705Y-118299385D01*
X188815316Y-118248255D01*
X188753134Y-118241500D01*
X187325585Y-118241500D01*
X187257464Y-118221498D01*
X187236490Y-118204595D01*
X185295405Y-116263510D01*
X185261379Y-116201198D01*
X185258500Y-116174415D01*
X185258500Y-107533646D01*
X185245288Y-107355858D01*
X185244407Y-107344000D01*
X185244406Y-107343996D01*
X185244061Y-107339348D01*
X185237957Y-107312369D01*
X185199798Y-107143733D01*
X185186377Y-107084423D01*
X185117965Y-106908500D01*
X185093340Y-106845176D01*
X185093339Y-106845173D01*
X185091647Y-106840823D01*
X184961951Y-106613902D01*
X184800138Y-106408643D01*
X184609763Y-106229557D01*
X184438099Y-106110469D01*
X184398851Y-106083241D01*
X184398848Y-106083239D01*
X184395009Y-106080576D01*
X184390816Y-106078508D01*
X184164781Y-105967040D01*
X184164778Y-105967039D01*
X184160593Y-105964975D01*
X184155361Y-105963300D01*
X183916123Y-105886720D01*
X183911665Y-105885293D01*
X183653693Y-105843279D01*
X183539942Y-105841790D01*
X183397022Y-105839919D01*
X183397019Y-105839919D01*
X183392345Y-105839858D01*
X183133362Y-105875104D01*
X182882433Y-105948243D01*
X182878180Y-105950203D01*
X182878179Y-105950204D01*
X182841659Y-105967040D01*
X182645072Y-106057668D01*
X182606067Y-106083241D01*
X182430404Y-106198410D01*
X182430399Y-106198414D01*
X182426491Y-106200976D01*
X182231494Y-106375018D01*
X182064363Y-106575970D01*
X182061934Y-106579973D01*
X181932179Y-106793803D01*
X181928771Y-106799419D01*
X181827697Y-107040455D01*
X181763359Y-107293783D01*
X181762891Y-107298434D01*
X181762890Y-107298438D01*
X181759229Y-107334794D01*
X181741500Y-107510867D01*
X181741500Y-116900103D01*
X181741297Y-116907246D01*
X181737103Y-116981100D01*
X181737103Y-116981107D01*
X181736838Y-116985776D01*
X181737267Y-116990440D01*
X181747287Y-117099489D01*
X181747469Y-117101668D01*
X181755939Y-117215652D01*
X181756971Y-117220211D01*
X181757516Y-117222619D01*
X181760097Y-117238911D01*
X181760753Y-117246050D01*
X181761865Y-117250594D01*
X181787914Y-117357051D01*
X181788418Y-117359190D01*
X181813623Y-117470577D01*
X181815314Y-117474926D01*
X181815317Y-117474935D01*
X181816218Y-117477251D01*
X181821172Y-117492964D01*
X181822877Y-117499930D01*
X181824652Y-117504267D01*
X181824652Y-117504269D01*
X181866141Y-117605683D01*
X181866956Y-117607725D01*
X181908353Y-117714177D01*
X181910674Y-117718238D01*
X181911910Y-117720401D01*
X181919131Y-117735206D01*
X181921845Y-117741839D01*
X181980288Y-117840075D01*
X181981352Y-117841899D01*
X182038049Y-117941098D01*
X182042481Y-117946720D01*
X182051809Y-117960291D01*
X182055481Y-117966463D01*
X182058428Y-117970071D01*
X182058433Y-117970077D01*
X182127790Y-118054965D01*
X182129162Y-118056675D01*
X182136843Y-118066418D01*
X182163310Y-118132294D01*
X182149961Y-118202024D01*
X182101031Y-118253468D01*
X182054888Y-118269276D01*
X182013095Y-118274964D01*
X182003978Y-118276902D01*
X181762098Y-118347404D01*
X181753367Y-118350667D01*
X181524558Y-118456151D01*
X181516406Y-118460670D01*
X181337353Y-118578062D01*
X181328216Y-118588803D01*
X174303500Y-118588803D01*
X174303500Y-113284500D01*
X174323502Y-113216379D01*
X174377158Y-113169886D01*
X174429500Y-113158500D01*
X177098134Y-113158500D01*
X177160316Y-113151745D01*
X177296705Y-113100615D01*
X177413261Y-113013261D01*
X177500615Y-112896705D01*
X177551745Y-112760316D01*
X177558500Y-112698134D01*
X177558500Y-109301866D01*
X177551745Y-109239684D01*
X177500615Y-109103295D01*
X177495230Y-109096110D01*
X177495229Y-109096108D01*
X177473161Y-109066663D01*
X177448313Y-109000156D01*
X177463366Y-108930774D01*
X177484892Y-108902003D01*
X184790367Y-101596528D01*
X184809429Y-101574406D01*
X184895046Y-101475041D01*
X184954666Y-101436491D01*
X185025662Y-101436294D01*
X185085495Y-101474511D01*
X185115167Y-101539010D01*
X185116500Y-101557288D01*
X185116500Y-105520543D01*
X185114949Y-105540255D01*
X185112850Y-105553507D01*
X185113195Y-105560094D01*
X185113195Y-105560098D01*
X185116327Y-105619850D01*
X185116500Y-105626445D01*
X185116500Y-105646306D01*
X185116844Y-105649577D01*
X185118576Y-105666059D01*
X185119093Y-105672633D01*
X185120924Y-105707561D01*
X185122570Y-105738971D01*
X185126042Y-105751929D01*
X185129645Y-105771372D01*
X185131046Y-105784702D01*
X185151578Y-105847894D01*
X185153444Y-105854196D01*
X185159397Y-105876412D01*
X185170638Y-105918363D01*
X185173634Y-105924242D01*
X185173637Y-105924251D01*
X185176728Y-105930317D01*
X185184292Y-105948579D01*
X185186392Y-105955043D01*
X185186395Y-105955051D01*
X185188436Y-105961331D01*
X185191738Y-105967050D01*
X185191740Y-105967055D01*
X185221654Y-106018867D01*
X185224787Y-106024637D01*
X185254953Y-106083839D01*
X185259109Y-106088971D01*
X185263391Y-106094259D01*
X185274589Y-106110552D01*
X185281296Y-106122169D01*
X185285713Y-106127075D01*
X185285717Y-106127080D01*
X185325747Y-106171538D01*
X185330031Y-106176554D01*
X185335547Y-106183365D01*
X185342528Y-106191986D01*
X185356573Y-106206031D01*
X185361114Y-106210816D01*
X185405566Y-106260185D01*
X185416426Y-106268075D01*
X185431454Y-106280912D01*
X186315172Y-107164630D01*
X186349198Y-107226942D01*
X186348199Y-107284743D01*
X186342365Y-107307714D01*
X186341897Y-107312365D01*
X186341896Y-107312369D01*
X186337517Y-107355858D01*
X186317370Y-107555939D01*
X186329339Y-107805131D01*
X186378010Y-108049818D01*
X186462314Y-108284622D01*
X186580398Y-108504386D01*
X186729668Y-108704283D01*
X186906844Y-108879921D01*
X186910606Y-108882679D01*
X186910609Y-108882682D01*
X187052526Y-108986739D01*
X187108036Y-109027440D01*
X187112171Y-109029616D01*
X187112175Y-109029618D01*
X187134132Y-109041170D01*
X187328823Y-109143602D01*
X187564354Y-109225853D01*
X187568947Y-109226725D01*
X187804867Y-109271516D01*
X187804870Y-109271516D01*
X187809456Y-109272387D01*
X187934099Y-109277284D01*
X188054075Y-109281999D01*
X188054081Y-109281999D01*
X188058743Y-109282182D01*
X188156134Y-109271516D01*
X188302087Y-109255532D01*
X188302092Y-109255531D01*
X188306740Y-109255022D01*
X188311264Y-109253831D01*
X188543476Y-109192694D01*
X188543478Y-109192693D01*
X188547999Y-109191503D01*
X188552298Y-109189656D01*
X188552301Y-109189655D01*
X188685274Y-109132526D01*
X188755758Y-109124014D01*
X188819656Y-109154960D01*
X188856679Y-109215538D01*
X188861011Y-109248294D01*
X188861011Y-110837341D01*
X188841009Y-110905462D01*
X188824106Y-110926436D01*
X187670947Y-112079595D01*
X187608635Y-112113621D01*
X187581852Y-112116500D01*
X187226347Y-112116500D01*
X187200150Y-112113747D01*
X187101944Y-112092872D01*
X187101939Y-112092872D01*
X187095487Y-112091500D01*
X186904513Y-112091500D01*
X186898061Y-112092872D01*
X186898056Y-112092872D01*
X186811113Y-112111353D01*
X186717712Y-112131206D01*
X186711682Y-112133891D01*
X186711681Y-112133891D01*
X186549278Y-112206197D01*
X186549276Y-112206198D01*
X186543248Y-112208882D01*
X186388747Y-112321134D01*
X186260960Y-112463056D01*
X186165473Y-112628444D01*
X186106458Y-112810072D01*
X186105768Y-112816633D01*
X186105768Y-112816635D01*
X186096597Y-112903891D01*
X186086496Y-113000000D01*
X186087186Y-113006565D01*
X186104352Y-113169886D01*
X186106458Y-113189928D01*
X186165473Y-113371556D01*
X186260960Y-113536944D01*
X186265378Y-113541851D01*
X186265379Y-113541852D01*
X186367375Y-113655130D01*
X186388747Y-113678866D01*
X186543248Y-113791118D01*
X186549276Y-113793802D01*
X186549278Y-113793803D01*
X186632984Y-113831071D01*
X186717712Y-113868794D01*
X186787712Y-113883673D01*
X186898056Y-113907128D01*
X186898061Y-113907128D01*
X186904513Y-113908500D01*
X187095487Y-113908500D01*
X187101939Y-113907128D01*
X187101944Y-113907128D01*
X187200150Y-113886253D01*
X187226347Y-113883500D01*
X187920543Y-113883500D01*
X187940255Y-113885051D01*
X187953507Y-113887150D01*
X187960094Y-113886805D01*
X187960098Y-113886805D01*
X188019850Y-113883673D01*
X188026445Y-113883500D01*
X188046306Y-113883500D01*
X188066069Y-113881423D01*
X188072628Y-113880907D01*
X188088427Y-113880079D01*
X188132377Y-113877776D01*
X188132381Y-113877775D01*
X188138971Y-113877430D01*
X188151929Y-113873958D01*
X188171372Y-113870355D01*
X188171795Y-113870311D01*
X188184702Y-113868954D01*
X188247894Y-113848422D01*
X188254196Y-113846556D01*
X188311985Y-113831071D01*
X188318363Y-113829362D01*
X188324242Y-113826366D01*
X188324251Y-113826363D01*
X188330317Y-113823272D01*
X188348579Y-113815708D01*
X188355043Y-113813608D01*
X188355051Y-113813605D01*
X188361331Y-113811564D01*
X188367050Y-113808262D01*
X188367055Y-113808260D01*
X188418867Y-113778346D01*
X188424637Y-113775213D01*
X188483839Y-113745047D01*
X188494259Y-113736609D01*
X188510552Y-113725411D01*
X188510903Y-113725209D01*
X188522169Y-113718704D01*
X188527075Y-113714287D01*
X188527080Y-113714283D01*
X188571538Y-113674253D01*
X188576554Y-113669969D01*
X188589409Y-113659559D01*
X188589412Y-113659556D01*
X188591986Y-113657472D01*
X188606031Y-113643427D01*
X188610816Y-113638886D01*
X188655274Y-113598856D01*
X188655275Y-113598855D01*
X188660185Y-113594434D01*
X188668075Y-113583574D01*
X188680912Y-113568546D01*
X190313057Y-111936401D01*
X190328085Y-111923564D01*
X190338945Y-111915674D01*
X190383397Y-111866305D01*
X190387938Y-111861520D01*
X190401983Y-111847475D01*
X190404070Y-111844898D01*
X190414480Y-111832043D01*
X190418764Y-111827027D01*
X190458794Y-111782569D01*
X190458798Y-111782564D01*
X190463215Y-111777658D01*
X190469922Y-111766041D01*
X190481120Y-111749748D01*
X190485402Y-111744460D01*
X190489558Y-111739328D01*
X190519724Y-111680126D01*
X190522857Y-111674356D01*
X190552771Y-111622544D01*
X190552773Y-111622539D01*
X190556075Y-111616820D01*
X190558116Y-111610540D01*
X190558119Y-111610532D01*
X190560219Y-111604068D01*
X190567783Y-111585806D01*
X190570874Y-111579740D01*
X190570877Y-111579731D01*
X190573873Y-111573852D01*
X190591067Y-111509685D01*
X190592933Y-111503383D01*
X190613465Y-111440191D01*
X190614866Y-111426861D01*
X190618469Y-111407418D01*
X190621941Y-111394460D01*
X190622563Y-111382606D01*
X190625418Y-111328122D01*
X190625935Y-111321548D01*
X190627667Y-111305066D01*
X190628011Y-111301795D01*
X190628011Y-111281928D01*
X190628184Y-111275333D01*
X190631316Y-111215587D01*
X190631316Y-111215583D01*
X190631661Y-111208996D01*
X190629562Y-111195742D01*
X190628011Y-111176033D01*
X190628011Y-108072288D01*
X190648013Y-108004167D01*
X190701669Y-107957674D01*
X190771943Y-107947570D01*
X190836523Y-107977064D01*
X190874907Y-108036790D01*
X190876083Y-108041575D01*
X190877099Y-108045238D01*
X190878010Y-108049818D01*
X190962314Y-108284622D01*
X191080398Y-108504386D01*
X191229668Y-108704283D01*
X191406844Y-108879921D01*
X191410606Y-108882679D01*
X191410609Y-108882682D01*
X191552526Y-108986739D01*
X191608036Y-109027440D01*
X191612171Y-109029616D01*
X191612175Y-109029618D01*
X191634132Y-109041170D01*
X191828823Y-109143602D01*
X192064354Y-109225853D01*
X192068947Y-109226725D01*
X192304867Y-109271516D01*
X192304870Y-109271516D01*
X192309456Y-109272387D01*
X192434099Y-109277284D01*
X192554075Y-109281999D01*
X192554081Y-109281999D01*
X192558743Y-109282182D01*
X192656134Y-109271516D01*
X192802087Y-109255532D01*
X192802092Y-109255531D01*
X192806740Y-109255022D01*
X192811264Y-109253831D01*
X193043476Y-109192694D01*
X193043478Y-109192693D01*
X193047999Y-109191503D01*
X193052296Y-109189657D01*
X193272924Y-109094868D01*
X193272926Y-109094867D01*
X193277218Y-109093023D01*
X193387667Y-109024675D01*
X193485391Y-108964202D01*
X193485395Y-108964199D01*
X193489364Y-108961743D01*
X193563024Y-108899385D01*
X193676209Y-108803567D01*
X193676210Y-108803566D01*
X193679775Y-108800548D01*
X193761316Y-108707569D01*
X193841187Y-108616494D01*
X193841191Y-108616489D01*
X193844269Y-108612979D01*
X193979231Y-108403157D01*
X194081697Y-108175691D01*
X194110860Y-108072288D01*
X194148146Y-107940082D01*
X194148147Y-107940079D01*
X194149416Y-107935578D01*
X194180900Y-107688092D01*
X194183207Y-107600000D01*
X194164718Y-107351206D01*
X194109659Y-107107878D01*
X194098845Y-107080069D01*
X194020931Y-106879714D01*
X194020930Y-106879712D01*
X194019238Y-106875361D01*
X193895442Y-106658763D01*
X193740990Y-106462842D01*
X193559276Y-106291902D01*
X193435493Y-106206031D01*
X193358130Y-106152362D01*
X193358125Y-106152359D01*
X193354292Y-106149700D01*
X193350110Y-106147637D01*
X193350102Y-106147633D01*
X193134728Y-106041423D01*
X193134725Y-106041422D01*
X193130540Y-106039358D01*
X192892937Y-105963300D01*
X192888330Y-105962550D01*
X192888327Y-105962549D01*
X192651314Y-105923949D01*
X192651310Y-105923949D01*
X192646701Y-105923198D01*
X192646086Y-105923190D01*
X192580963Y-105897717D01*
X192539322Y-105840214D01*
X192535381Y-105769326D01*
X192570389Y-105707561D01*
X192633233Y-105674528D01*
X192644340Y-105672808D01*
X192705962Y-105666059D01*
X192802087Y-105655532D01*
X192802092Y-105655531D01*
X192806740Y-105655022D01*
X192811264Y-105653831D01*
X193043476Y-105592694D01*
X193043478Y-105592693D01*
X193047999Y-105591503D01*
X193052296Y-105589657D01*
X193272924Y-105494868D01*
X193272926Y-105494867D01*
X193277218Y-105493023D01*
X193404604Y-105414194D01*
X193485391Y-105364202D01*
X193485395Y-105364199D01*
X193489364Y-105361743D01*
X193537333Y-105321134D01*
X193676209Y-105203567D01*
X193676210Y-105203566D01*
X193679775Y-105200548D01*
X193761316Y-105107569D01*
X193841187Y-105016494D01*
X193841191Y-105016489D01*
X193844269Y-105012979D01*
X193979231Y-104803157D01*
X194081697Y-104575691D01*
X194113226Y-104463897D01*
X194148146Y-104340082D01*
X194148147Y-104340079D01*
X194149416Y-104335578D01*
X194180900Y-104088092D01*
X194183207Y-104000000D01*
X194164718Y-103751206D01*
X194109659Y-103507878D01*
X194107966Y-103503524D01*
X194020931Y-103279714D01*
X194020930Y-103279712D01*
X194019238Y-103275361D01*
X193895442Y-103058763D01*
X193740990Y-102862842D01*
X193559276Y-102691902D01*
X193424157Y-102598167D01*
X193358130Y-102552362D01*
X193358125Y-102552359D01*
X193354292Y-102549700D01*
X193350110Y-102547637D01*
X193350102Y-102547633D01*
X193134728Y-102441423D01*
X193134725Y-102441422D01*
X193130540Y-102439358D01*
X192892937Y-102363300D01*
X192888330Y-102362550D01*
X192888327Y-102362549D01*
X192651314Y-102323949D01*
X192651310Y-102323949D01*
X192646701Y-102323198D01*
X192646086Y-102323190D01*
X192580963Y-102297717D01*
X192539322Y-102240214D01*
X192535381Y-102169326D01*
X192570389Y-102107561D01*
X192633233Y-102074528D01*
X192644340Y-102072808D01*
X192694998Y-102067260D01*
X192802087Y-102055532D01*
X192802092Y-102055531D01*
X192806740Y-102055022D01*
X192811264Y-102053831D01*
X193043476Y-101992694D01*
X193043478Y-101992693D01*
X193047999Y-101991503D01*
X193052296Y-101989657D01*
X193272924Y-101894868D01*
X193272926Y-101894867D01*
X193277218Y-101893023D01*
X193383199Y-101827440D01*
X193485391Y-101764202D01*
X193485395Y-101764199D01*
X193489364Y-101761743D01*
X193613351Y-101656780D01*
X193676209Y-101603567D01*
X193676210Y-101603566D01*
X193679775Y-101600548D01*
X193747699Y-101523096D01*
X193841187Y-101416494D01*
X193841191Y-101416489D01*
X193844269Y-101412979D01*
X193864899Y-101380907D01*
X193976703Y-101207087D01*
X193979231Y-101203157D01*
X194081697Y-100975691D01*
X194109093Y-100878554D01*
X194148146Y-100740082D01*
X194148147Y-100740079D01*
X194149416Y-100735578D01*
X194180900Y-100488092D01*
X194183207Y-100400000D01*
X194164718Y-100151206D01*
X194109659Y-99907878D01*
X194107966Y-99903524D01*
X194020931Y-99679714D01*
X194020930Y-99679712D01*
X194019238Y-99675361D01*
X193895442Y-99458763D01*
X193740990Y-99262842D01*
X193559276Y-99091902D01*
X193424157Y-98998167D01*
X193358130Y-98952362D01*
X193358125Y-98952359D01*
X193354292Y-98949700D01*
X193350107Y-98947636D01*
X193350102Y-98947633D01*
X193134728Y-98841423D01*
X193134725Y-98841422D01*
X193130540Y-98839358D01*
X193126099Y-98837936D01*
X193126093Y-98837934D01*
X193109499Y-98832622D01*
X193050720Y-98792803D01*
X193022800Y-98727526D01*
X193034603Y-98657518D01*
X193058820Y-98623526D01*
X193761941Y-97920405D01*
X193824253Y-97886379D01*
X193851036Y-97883500D01*
X197092860Y-97883500D01*
X197123160Y-97877060D01*
X197131938Y-97875194D01*
X197144963Y-97873131D01*
X197178140Y-97869644D01*
X197178143Y-97869643D01*
X197184702Y-97868954D01*
X197222704Y-97856606D01*
X197235443Y-97853193D01*
X197268067Y-97846259D01*
X197268069Y-97846258D01*
X197274521Y-97844887D01*
X197311022Y-97828636D01*
X197323332Y-97823911D01*
X197355047Y-97813606D01*
X197355048Y-97813605D01*
X197361331Y-97811564D01*
X197367054Y-97808260D01*
X197395939Y-97791584D01*
X197407686Y-97785598D01*
X197419870Y-97780173D01*
X197444183Y-97769348D01*
X197476505Y-97745864D01*
X197487564Y-97738683D01*
X197516451Y-97722005D01*
X197522169Y-97718704D01*
X197551859Y-97691971D01*
X197562108Y-97683671D01*
X197589095Y-97664064D01*
X197594434Y-97660185D01*
X197598850Y-97655281D01*
X197621171Y-97630492D01*
X197630492Y-97621171D01*
X197655281Y-97598850D01*
X197655282Y-97598848D01*
X197660185Y-97594434D01*
X197683672Y-97562107D01*
X197691972Y-97551858D01*
X197714285Y-97527077D01*
X197714286Y-97527076D01*
X197718704Y-97522169D01*
X197738682Y-97487567D01*
X197745864Y-97476507D01*
X197765467Y-97449526D01*
X197765468Y-97449525D01*
X197769348Y-97444184D01*
X197772031Y-97438158D01*
X197772035Y-97438151D01*
X197785600Y-97407682D01*
X197791582Y-97395940D01*
X197811564Y-97361331D01*
X197823914Y-97323320D01*
X197828636Y-97311020D01*
X197828962Y-97310289D01*
X197841106Y-97283014D01*
X197842203Y-97280550D01*
X197842204Y-97280547D01*
X197844887Y-97274521D01*
X197853193Y-97235443D01*
X197856607Y-97222701D01*
X197859170Y-97214815D01*
X197868954Y-97184702D01*
X197873131Y-97144963D01*
X197875194Y-97131938D01*
X197882127Y-97099318D01*
X197883500Y-97092860D01*
X197883500Y-89619457D01*
X197885051Y-89599745D01*
X197886118Y-89593008D01*
X197887150Y-89586493D01*
X197886768Y-89579191D01*
X197883673Y-89520150D01*
X197883500Y-89513555D01*
X197883500Y-89493694D01*
X197881423Y-89473931D01*
X197880907Y-89467367D01*
X197877776Y-89407623D01*
X197877775Y-89407619D01*
X197877430Y-89401029D01*
X197873958Y-89388071D01*
X197870355Y-89368628D01*
X197869644Y-89361866D01*
X197868954Y-89355298D01*
X197848422Y-89292106D01*
X197846556Y-89285804D01*
X197831071Y-89228015D01*
X197829362Y-89221637D01*
X197826366Y-89215758D01*
X197826363Y-89215749D01*
X197823272Y-89209683D01*
X197815708Y-89191421D01*
X197813608Y-89184958D01*
X197813606Y-89184953D01*
X197811564Y-89178669D01*
X197778337Y-89121119D01*
X197775214Y-89115366D01*
X197745048Y-89056161D01*
X197736607Y-89045737D01*
X197725412Y-89029449D01*
X197722005Y-89023548D01*
X197722004Y-89023547D01*
X197718704Y-89017831D01*
X197714287Y-89012925D01*
X197714283Y-89012920D01*
X197674253Y-88968462D01*
X197669969Y-88963447D01*
X197659548Y-88950579D01*
X197657472Y-88948015D01*
X197643436Y-88933979D01*
X197638895Y-88929194D01*
X197598856Y-88884726D01*
X197598855Y-88884725D01*
X197594434Y-88879815D01*
X197589094Y-88875935D01*
X197589086Y-88875928D01*
X197583578Y-88871927D01*
X197568543Y-88859086D01*
X195444742Y-86735284D01*
X195410716Y-86672972D01*
X195408915Y-86629745D01*
X195411202Y-86612368D01*
X195411640Y-86609041D01*
X195411722Y-86605691D01*
X195413245Y-86543365D01*
X195413245Y-86543361D01*
X195413327Y-86540000D01*
X195402617Y-86409734D01*
X195394773Y-86314318D01*
X195394772Y-86314312D01*
X195394349Y-86309167D01*
X195350323Y-86133891D01*
X195339184Y-86089544D01*
X195339183Y-86089540D01*
X195337925Y-86084533D01*
X195335731Y-86079487D01*
X195247630Y-85876868D01*
X195247628Y-85876865D01*
X195245570Y-85872131D01*
X195119764Y-85677665D01*
X195029848Y-85578848D01*
X194998796Y-85515002D01*
X195007192Y-85444504D01*
X195052369Y-85389736D01*
X195078812Y-85376067D01*
X195138297Y-85353767D01*
X195146705Y-85350615D01*
X195263261Y-85263261D01*
X195350615Y-85146705D01*
X195401745Y-85010316D01*
X195408500Y-84948134D01*
X195408500Y-83051866D01*
X195401745Y-82989684D01*
X195350615Y-82853295D01*
X195263261Y-82736739D01*
X195146705Y-82649385D01*
X195010316Y-82598255D01*
X194948134Y-82591500D01*
X193716371Y-82591500D01*
X193648250Y-82571498D01*
X193627276Y-82554595D01*
X193106270Y-82033589D01*
X193093884Y-82019177D01*
X193085351Y-82007582D01*
X193085346Y-82007577D01*
X193081008Y-82001682D01*
X193075430Y-81996943D01*
X193075427Y-81996940D01*
X193040732Y-81967465D01*
X193033216Y-81960535D01*
X193027521Y-81954840D01*
X193021380Y-81949982D01*
X193005249Y-81937219D01*
X193001845Y-81934428D01*
X192951797Y-81891909D01*
X192951795Y-81891908D01*
X192946215Y-81887167D01*
X192939699Y-81883839D01*
X192934650Y-81880472D01*
X192929521Y-81877305D01*
X192923784Y-81872766D01*
X192857625Y-81841845D01*
X192853725Y-81839939D01*
X192788692Y-81806731D01*
X192781584Y-81804992D01*
X192775941Y-81802893D01*
X192770178Y-81800976D01*
X192763550Y-81797878D01*
X192692083Y-81783013D01*
X192687799Y-81782043D01*
X192616890Y-81764692D01*
X192611288Y-81764344D01*
X192611285Y-81764344D01*
X192605736Y-81764000D01*
X192605738Y-81763964D01*
X192601745Y-81763725D01*
X192597553Y-81763351D01*
X192590385Y-81761860D01*
X192524175Y-81763651D01*
X192512979Y-81763954D01*
X192509572Y-81764000D01*
X190493953Y-81764000D01*
X190425832Y-81743998D01*
X190404942Y-81727179D01*
X190373279Y-81695571D01*
X190225196Y-81604291D01*
X190060085Y-81549526D01*
X190053249Y-81548826D01*
X190053246Y-81548825D01*
X190001750Y-81543549D01*
X189957348Y-81539000D01*
X189358204Y-81539000D01*
X189354958Y-81539337D01*
X189354954Y-81539337D01*
X189261041Y-81549081D01*
X189261037Y-81549082D01*
X189254183Y-81549793D01*
X189247647Y-81551974D01*
X189247645Y-81551974D01*
X189114881Y-81596268D01*
X189089169Y-81604846D01*
X188941245Y-81696384D01*
X188834175Y-81803641D01*
X188771894Y-81837720D01*
X188701074Y-81832717D01*
X188655985Y-81803796D01*
X188553147Y-81701137D01*
X188541736Y-81692125D01*
X188406213Y-81608588D01*
X188393035Y-81602444D01*
X188241510Y-81552185D01*
X188228144Y-81549319D01*
X188135506Y-81539828D01*
X188129091Y-81539500D01*
X188104891Y-81539500D01*
X188089652Y-81543975D01*
X188088447Y-81545365D01*
X188086776Y-81553048D01*
X188086776Y-83487385D01*
X188091251Y-83502624D01*
X188092641Y-83503829D01*
X188100324Y-83505500D01*
X188129042Y-83505500D01*
X188135558Y-83505163D01*
X188229408Y-83495425D01*
X188242804Y-83492532D01*
X188394229Y-83442012D01*
X188407391Y-83435847D01*
X188542768Y-83352074D01*
X188554166Y-83343040D01*
X188655669Y-83241360D01*
X188717952Y-83207281D01*
X188788772Y-83212284D01*
X188833859Y-83241204D01*
X188942273Y-83349429D01*
X189090356Y-83440709D01*
X189255467Y-83495474D01*
X189262303Y-83496174D01*
X189262306Y-83496175D01*
X189309646Y-83501025D01*
X189358204Y-83506000D01*
X189957348Y-83506000D01*
X189960594Y-83505663D01*
X189960598Y-83505663D01*
X190054511Y-83495919D01*
X190054515Y-83495918D01*
X190061369Y-83495207D01*
X190067905Y-83493026D01*
X190067907Y-83493026D01*
X190200671Y-83448732D01*
X190226383Y-83440154D01*
X190374307Y-83348616D01*
X190404888Y-83317982D01*
X190467171Y-83283903D01*
X190494061Y-83281000D01*
X192156129Y-83281000D01*
X192224250Y-83301002D01*
X192245224Y-83317905D01*
X192554595Y-83627276D01*
X192588621Y-83689588D01*
X192591500Y-83716371D01*
X192591500Y-84948134D01*
X192598255Y-85010316D01*
X192649385Y-85146705D01*
X192736739Y-85263261D01*
X192853295Y-85350615D01*
X192861704Y-85353767D01*
X192861705Y-85353768D01*
X192921164Y-85376058D01*
X192977929Y-85418699D01*
X193002629Y-85485261D01*
X192987422Y-85554609D01*
X192968029Y-85581091D01*
X192901639Y-85650564D01*
X192898725Y-85654836D01*
X192898724Y-85654837D01*
X192883152Y-85677665D01*
X192771119Y-85841899D01*
X192673602Y-86051981D01*
X192611707Y-86275169D01*
X192587095Y-86505469D01*
X192587392Y-86510622D01*
X192587392Y-86510625D01*
X192599245Y-86716194D01*
X192600427Y-86736697D01*
X192601564Y-86741743D01*
X192601565Y-86741749D01*
X192621772Y-86831413D01*
X192651346Y-86962642D01*
X192653288Y-86967424D01*
X192653289Y-86967428D01*
X192727845Y-87151037D01*
X192738484Y-87177237D01*
X192859501Y-87374719D01*
X193011147Y-87549784D01*
X193189349Y-87697730D01*
X193389322Y-87814584D01*
X193394147Y-87816426D01*
X193394148Y-87816427D01*
X193421650Y-87826929D01*
X193605694Y-87897209D01*
X193610760Y-87898240D01*
X193610761Y-87898240D01*
X193654447Y-87907128D01*
X193832656Y-87943385D01*
X193963324Y-87948176D01*
X194058949Y-87951683D01*
X194058953Y-87951683D01*
X194064113Y-87951872D01*
X194069232Y-87951216D01*
X194069236Y-87951216D01*
X194089891Y-87948570D01*
X194160001Y-87959755D01*
X194194996Y-87984454D01*
X196079595Y-89869052D01*
X196113620Y-89931364D01*
X196116500Y-89958147D01*
X196116500Y-95990500D01*
X196096498Y-96058621D01*
X196042842Y-96105114D01*
X195990500Y-96116500D01*
X193512345Y-96116500D01*
X193492633Y-96114949D01*
X193485896Y-96113882D01*
X193485897Y-96113882D01*
X193479381Y-96112850D01*
X193472794Y-96113195D01*
X193472790Y-96113195D01*
X193413038Y-96116327D01*
X193406443Y-96116500D01*
X193386582Y-96116500D01*
X193366819Y-96118577D01*
X193360260Y-96119093D01*
X193344461Y-96119921D01*
X193300511Y-96122224D01*
X193300507Y-96122225D01*
X193293917Y-96122570D01*
X193280959Y-96126042D01*
X193261516Y-96129645D01*
X193248186Y-96131046D01*
X193184994Y-96151578D01*
X193178692Y-96153444D01*
X193128527Y-96166886D01*
X193114525Y-96170638D01*
X193108646Y-96173634D01*
X193108637Y-96173637D01*
X193102571Y-96176728D01*
X193084309Y-96184292D01*
X193077845Y-96186392D01*
X193077837Y-96186395D01*
X193071557Y-96188436D01*
X193065838Y-96191738D01*
X193065833Y-96191740D01*
X193014021Y-96221654D01*
X193008251Y-96224787D01*
X192949049Y-96254953D01*
X192943917Y-96259109D01*
X192938629Y-96263391D01*
X192922336Y-96274589D01*
X192910719Y-96281296D01*
X192905813Y-96285713D01*
X192905808Y-96285717D01*
X192861350Y-96325747D01*
X192856334Y-96330031D01*
X192843479Y-96340441D01*
X192840902Y-96342528D01*
X192826857Y-96356573D01*
X192822072Y-96361114D01*
X192772703Y-96405566D01*
X192764813Y-96416426D01*
X192751976Y-96431454D01*
X190186943Y-98996487D01*
X190171915Y-99009324D01*
X190161055Y-99017214D01*
X190156634Y-99022124D01*
X190156633Y-99022125D01*
X190116603Y-99066583D01*
X190112062Y-99071368D01*
X190098017Y-99085413D01*
X190095933Y-99087987D01*
X190095930Y-99087990D01*
X190085520Y-99100845D01*
X190081236Y-99105861D01*
X190041206Y-99150319D01*
X190041202Y-99150324D01*
X190036785Y-99155230D01*
X190030280Y-99166496D01*
X190030078Y-99166847D01*
X190018880Y-99183140D01*
X190010442Y-99193560D01*
X189980276Y-99252762D01*
X189977143Y-99258532D01*
X189947229Y-99310344D01*
X189947227Y-99310349D01*
X189943925Y-99316068D01*
X189941884Y-99322348D01*
X189941881Y-99322356D01*
X189939781Y-99328820D01*
X189932217Y-99347082D01*
X189929126Y-99353148D01*
X189929123Y-99353157D01*
X189926127Y-99359036D01*
X189924418Y-99365414D01*
X189908933Y-99423203D01*
X189907067Y-99429505D01*
X189886535Y-99492697D01*
X189885845Y-99499265D01*
X189885134Y-99506027D01*
X189881531Y-99525470D01*
X189878059Y-99538428D01*
X189877714Y-99545018D01*
X189877713Y-99545022D01*
X189874582Y-99604766D01*
X189874066Y-99611330D01*
X189871989Y-99631093D01*
X189871989Y-99650954D01*
X189871816Y-99657549D01*
X189869703Y-99697872D01*
X189868339Y-99723892D01*
X189869371Y-99730406D01*
X189870438Y-99737143D01*
X189871989Y-99756855D01*
X189871989Y-99939454D01*
X189851987Y-100007575D01*
X189798331Y-100054068D01*
X189728057Y-100064172D01*
X189663477Y-100034678D01*
X189625093Y-99974952D01*
X189623096Y-99967261D01*
X189610691Y-99912437D01*
X189610689Y-99912432D01*
X189609659Y-99907878D01*
X189607966Y-99903524D01*
X189520931Y-99679714D01*
X189520930Y-99679712D01*
X189519238Y-99675361D01*
X189395442Y-99458763D01*
X189240990Y-99262842D01*
X189059276Y-99091902D01*
X188924157Y-98998167D01*
X188858130Y-98952362D01*
X188858125Y-98952359D01*
X188854292Y-98949700D01*
X188728771Y-98887800D01*
X188676523Y-98839731D01*
X188658500Y-98774794D01*
X188658500Y-94215848D01*
X188678502Y-94147727D01*
X188732158Y-94101234D01*
X188802432Y-94091130D01*
X188867012Y-94120624D01*
X188876654Y-94130083D01*
X188879815Y-94134434D01*
X188884725Y-94138855D01*
X188884726Y-94138856D01*
X188929184Y-94178886D01*
X188933969Y-94183427D01*
X188948014Y-94197472D01*
X188950588Y-94199556D01*
X188950591Y-94199559D01*
X188963446Y-94209969D01*
X188968462Y-94214253D01*
X189012920Y-94254283D01*
X189012925Y-94254287D01*
X189017831Y-94258704D01*
X189025754Y-94263278D01*
X189029448Y-94265411D01*
X189045741Y-94276609D01*
X189056161Y-94285047D01*
X189115363Y-94315213D01*
X189121133Y-94318346D01*
X189172945Y-94348260D01*
X189172950Y-94348262D01*
X189178669Y-94351564D01*
X189184949Y-94353605D01*
X189184957Y-94353608D01*
X189191421Y-94355708D01*
X189209683Y-94363272D01*
X189215749Y-94366363D01*
X189215758Y-94366366D01*
X189221637Y-94369362D01*
X189228015Y-94371071D01*
X189285804Y-94386556D01*
X189292106Y-94388422D01*
X189355298Y-94408954D01*
X189368205Y-94410311D01*
X189368628Y-94410355D01*
X189388071Y-94413958D01*
X189401029Y-94417430D01*
X189407619Y-94417775D01*
X189407623Y-94417776D01*
X189451573Y-94420079D01*
X189467372Y-94420907D01*
X189473931Y-94421423D01*
X189493694Y-94423500D01*
X189513555Y-94423500D01*
X189520150Y-94423673D01*
X189579902Y-94426805D01*
X189579906Y-94426805D01*
X189586493Y-94427150D01*
X189599747Y-94425051D01*
X189619456Y-94423500D01*
X192844202Y-94423500D01*
X192912323Y-94443502D01*
X192939440Y-94467003D01*
X193007763Y-94545878D01*
X193007766Y-94545881D01*
X193011147Y-94549784D01*
X193189349Y-94697730D01*
X193389322Y-94814584D01*
X193605694Y-94897209D01*
X193610760Y-94898240D01*
X193610761Y-94898240D01*
X193663846Y-94909040D01*
X193832656Y-94943385D01*
X193963324Y-94948176D01*
X194058949Y-94951683D01*
X194058953Y-94951683D01*
X194064113Y-94951872D01*
X194069233Y-94951216D01*
X194069235Y-94951216D01*
X194142270Y-94941860D01*
X194293847Y-94922442D01*
X194298795Y-94920957D01*
X194298802Y-94920956D01*
X194510747Y-94857369D01*
X194515690Y-94855886D01*
X194569173Y-94829685D01*
X194719049Y-94756262D01*
X194719052Y-94756260D01*
X194723684Y-94753991D01*
X194912243Y-94619494D01*
X195076303Y-94456005D01*
X195211458Y-94267917D01*
X195214381Y-94262004D01*
X195311784Y-94064922D01*
X195311785Y-94064920D01*
X195314078Y-94060280D01*
X195381408Y-93838671D01*
X195411640Y-93609041D01*
X195411730Y-93605356D01*
X195413245Y-93543365D01*
X195413245Y-93543361D01*
X195413327Y-93540000D01*
X195400699Y-93386399D01*
X195394773Y-93314318D01*
X195394772Y-93314312D01*
X195394349Y-93309167D01*
X195337925Y-93084533D01*
X195320689Y-93044892D01*
X195247630Y-92876868D01*
X195247628Y-92876865D01*
X195245570Y-92872131D01*
X195119764Y-92677665D01*
X195116282Y-92673838D01*
X195029848Y-92578848D01*
X194998796Y-92515002D01*
X195007192Y-92444504D01*
X195052369Y-92389736D01*
X195078812Y-92376067D01*
X195138297Y-92353767D01*
X195146705Y-92350615D01*
X195263261Y-92263261D01*
X195350615Y-92146705D01*
X195401745Y-92010316D01*
X195408500Y-91948134D01*
X195408500Y-90051866D01*
X195401745Y-89989684D01*
X195350615Y-89853295D01*
X195263261Y-89736739D01*
X195146705Y-89649385D01*
X195010316Y-89598255D01*
X194948134Y-89591500D01*
X193716371Y-89591500D01*
X193648250Y-89571498D01*
X193627276Y-89554595D01*
X193583770Y-89511089D01*
X193571384Y-89496677D01*
X193562851Y-89485082D01*
X193562846Y-89485077D01*
X193558508Y-89479182D01*
X193552930Y-89474443D01*
X193552927Y-89474440D01*
X193518232Y-89444965D01*
X193510716Y-89438035D01*
X193505021Y-89432340D01*
X193486825Y-89417944D01*
X193482749Y-89414719D01*
X193479345Y-89411928D01*
X193429297Y-89369409D01*
X193429295Y-89369408D01*
X193423715Y-89364667D01*
X193417199Y-89361339D01*
X193412150Y-89357972D01*
X193407021Y-89354805D01*
X193401284Y-89350266D01*
X193335125Y-89319345D01*
X193331225Y-89317439D01*
X193330857Y-89317251D01*
X193266192Y-89284231D01*
X193259084Y-89282492D01*
X193253441Y-89280393D01*
X193247678Y-89278476D01*
X193241050Y-89275378D01*
X193212791Y-89269500D01*
X193169588Y-89260514D01*
X193165299Y-89259543D01*
X193094390Y-89242192D01*
X193088788Y-89241844D01*
X193088785Y-89241844D01*
X193083236Y-89241500D01*
X193083238Y-89241464D01*
X193079245Y-89241225D01*
X193075053Y-89240851D01*
X193067885Y-89239360D01*
X193001675Y-89241151D01*
X192990479Y-89241454D01*
X192987072Y-89241500D01*
X190748677Y-89241500D01*
X190680556Y-89221498D01*
X190659666Y-89204679D01*
X190628003Y-89173071D01*
X190517400Y-89104894D01*
X190486150Y-89085631D01*
X190486148Y-89085630D01*
X190479920Y-89081791D01*
X190314809Y-89027026D01*
X190307973Y-89026326D01*
X190307970Y-89026325D01*
X190256474Y-89021049D01*
X190212072Y-89016500D01*
X189612928Y-89016500D01*
X189609682Y-89016837D01*
X189609678Y-89016837D01*
X189515765Y-89026581D01*
X189515761Y-89026582D01*
X189508907Y-89027293D01*
X189502371Y-89029474D01*
X189502369Y-89029474D01*
X189369605Y-89073768D01*
X189343893Y-89082346D01*
X189195969Y-89173884D01*
X189088899Y-89281141D01*
X189026618Y-89315220D01*
X188955798Y-89310217D01*
X188910709Y-89281296D01*
X188807871Y-89178637D01*
X188796460Y-89169625D01*
X188660937Y-89086088D01*
X188647759Y-89079944D01*
X188496234Y-89029685D01*
X188482868Y-89026819D01*
X188390230Y-89017328D01*
X188383815Y-89017000D01*
X188359615Y-89017000D01*
X188344376Y-89021475D01*
X188343171Y-89022865D01*
X188341500Y-89030548D01*
X188341500Y-90128000D01*
X188321498Y-90196121D01*
X188267842Y-90242614D01*
X188215500Y-90254000D01*
X187959500Y-90254000D01*
X187891379Y-90233998D01*
X187844886Y-90180342D01*
X187833500Y-90128000D01*
X187833500Y-89035115D01*
X187829025Y-89019876D01*
X187827635Y-89018671D01*
X187819952Y-89017000D01*
X187791234Y-89017000D01*
X187784718Y-89017337D01*
X187690868Y-89027075D01*
X187677472Y-89029968D01*
X187526047Y-89080488D01*
X187512885Y-89086653D01*
X187377508Y-89170426D01*
X187366110Y-89179460D01*
X187253637Y-89292129D01*
X187244625Y-89303540D01*
X187161088Y-89439063D01*
X187154944Y-89452240D01*
X187129093Y-89530178D01*
X187088662Y-89588538D01*
X187023098Y-89615775D01*
X186953217Y-89603242D01*
X186901205Y-89554917D01*
X186883500Y-89490511D01*
X186883500Y-88079457D01*
X186885051Y-88059745D01*
X186886118Y-88053008D01*
X186887150Y-88046493D01*
X186886678Y-88037476D01*
X186883673Y-87980150D01*
X186883500Y-87973555D01*
X186883500Y-87953694D01*
X186881423Y-87933931D01*
X186880907Y-87927367D01*
X186877776Y-87867623D01*
X186877775Y-87867619D01*
X186877430Y-87861029D01*
X186873958Y-87848071D01*
X186870355Y-87828628D01*
X186869644Y-87821866D01*
X186868954Y-87815298D01*
X186848422Y-87752106D01*
X186846556Y-87745804D01*
X186831071Y-87688015D01*
X186829362Y-87681637D01*
X186826366Y-87675758D01*
X186826363Y-87675749D01*
X186823272Y-87669683D01*
X186815708Y-87651421D01*
X186813608Y-87644958D01*
X186813606Y-87644953D01*
X186811564Y-87638669D01*
X186778337Y-87581119D01*
X186775214Y-87575366D01*
X186745048Y-87516161D01*
X186736607Y-87505737D01*
X186725412Y-87489449D01*
X186722005Y-87483548D01*
X186722004Y-87483547D01*
X186718704Y-87477831D01*
X186714287Y-87472925D01*
X186714283Y-87472920D01*
X186674253Y-87428462D01*
X186669969Y-87423447D01*
X186659548Y-87410579D01*
X186657472Y-87408015D01*
X186643436Y-87393979D01*
X186638895Y-87389194D01*
X186598856Y-87344726D01*
X186598855Y-87344725D01*
X186594434Y-87339815D01*
X186589094Y-87335935D01*
X186589086Y-87335928D01*
X186583578Y-87331927D01*
X186568543Y-87319086D01*
X183680912Y-84431454D01*
X183668073Y-84416423D01*
X183660185Y-84405566D01*
X183610816Y-84361114D01*
X183606031Y-84356573D01*
X183591986Y-84342528D01*
X183589409Y-84340441D01*
X183576554Y-84330031D01*
X183571538Y-84325747D01*
X183527080Y-84285717D01*
X183527075Y-84285713D01*
X183522169Y-84281296D01*
X183510552Y-84274589D01*
X183494259Y-84263391D01*
X183488971Y-84259109D01*
X183483839Y-84254953D01*
X183424637Y-84224787D01*
X183418867Y-84221654D01*
X183367055Y-84191740D01*
X183367050Y-84191738D01*
X183361331Y-84188436D01*
X183355051Y-84186395D01*
X183355043Y-84186392D01*
X183348579Y-84184292D01*
X183330317Y-84176728D01*
X183324251Y-84173637D01*
X183324242Y-84173634D01*
X183318363Y-84170638D01*
X183307672Y-84167773D01*
X183254196Y-84153444D01*
X183247894Y-84151578D01*
X183184702Y-84131046D01*
X183171372Y-84129645D01*
X183151929Y-84126042D01*
X183138971Y-84122570D01*
X183132381Y-84122225D01*
X183132377Y-84122224D01*
X183088427Y-84119921D01*
X183072628Y-84119093D01*
X183066069Y-84118577D01*
X183046306Y-84116500D01*
X183026445Y-84116500D01*
X183019850Y-84116327D01*
X182960098Y-84113195D01*
X182960094Y-84113195D01*
X182953507Y-84112850D01*
X182940253Y-84114949D01*
X182920544Y-84116500D01*
X178079457Y-84116500D01*
X178059745Y-84114949D01*
X178053008Y-84113882D01*
X178053009Y-84113882D01*
X178046493Y-84112850D01*
X178039906Y-84113195D01*
X178039902Y-84113195D01*
X177980150Y-84116327D01*
X177973555Y-84116500D01*
X177953694Y-84116500D01*
X177933931Y-84118577D01*
X177927372Y-84119093D01*
X177911573Y-84119921D01*
X177867623Y-84122224D01*
X177867619Y-84122225D01*
X177861029Y-84122570D01*
X177848071Y-84126042D01*
X177828628Y-84129645D01*
X177815298Y-84131046D01*
X177752106Y-84151578D01*
X177745804Y-84153444D01*
X177692328Y-84167773D01*
X177681637Y-84170638D01*
X177675758Y-84173634D01*
X177675749Y-84173637D01*
X177669683Y-84176728D01*
X177651421Y-84184292D01*
X177644957Y-84186392D01*
X177644949Y-84186395D01*
X177638669Y-84188436D01*
X177632950Y-84191738D01*
X177632945Y-84191740D01*
X177581133Y-84221654D01*
X177575363Y-84224787D01*
X177516161Y-84254953D01*
X177511029Y-84259109D01*
X177505742Y-84263390D01*
X177489446Y-84274590D01*
X177483546Y-84277996D01*
X177483543Y-84277998D01*
X177477831Y-84281296D01*
X177472926Y-84285712D01*
X177472921Y-84285716D01*
X177428453Y-84325754D01*
X177423447Y-84330031D01*
X177408015Y-84342528D01*
X177393978Y-84356565D01*
X177389193Y-84361106D01*
X177339815Y-84405566D01*
X177335935Y-84410907D01*
X177335927Y-84410916D01*
X177331926Y-84416423D01*
X177319085Y-84431458D01*
X177106944Y-84643599D01*
X177091907Y-84656442D01*
X177086402Y-84660441D01*
X177086400Y-84660443D01*
X177081055Y-84664326D01*
X177036603Y-84713695D01*
X177032062Y-84718480D01*
X177018017Y-84732525D01*
X177015933Y-84735099D01*
X177015930Y-84735102D01*
X177005520Y-84747957D01*
X177001236Y-84752973D01*
X176961206Y-84797431D01*
X176961202Y-84797436D01*
X176956785Y-84802342D01*
X176950280Y-84813608D01*
X176950078Y-84813959D01*
X176938880Y-84830252D01*
X176930442Y-84840672D01*
X176900276Y-84899874D01*
X176897143Y-84905644D01*
X176867229Y-84957456D01*
X176867227Y-84957461D01*
X176863925Y-84963180D01*
X176861884Y-84969460D01*
X176861881Y-84969468D01*
X176859781Y-84975932D01*
X176852217Y-84994194D01*
X176849126Y-85000260D01*
X176849123Y-85000269D01*
X176846127Y-85006148D01*
X176844418Y-85012526D01*
X176828933Y-85070315D01*
X176827067Y-85076617D01*
X176806535Y-85139809D01*
X176805178Y-85152716D01*
X176805134Y-85153139D01*
X176801531Y-85172582D01*
X176798059Y-85185540D01*
X176797714Y-85192130D01*
X176797713Y-85192134D01*
X176794582Y-85251878D01*
X176794066Y-85258442D01*
X176791989Y-85278205D01*
X176791989Y-85298066D01*
X176791816Y-85304661D01*
X176789408Y-85350615D01*
X176788339Y-85371004D01*
X176789371Y-85377518D01*
X176790438Y-85384255D01*
X176791989Y-85403967D01*
X176791989Y-86295120D01*
X176771987Y-86363241D01*
X176718331Y-86409734D01*
X176648057Y-86419838D01*
X176605480Y-86405640D01*
X176603888Y-86404768D01*
X176596705Y-86399385D01*
X176588304Y-86396236D01*
X176588301Y-86396234D01*
X176481309Y-86356125D01*
X176460316Y-86348255D01*
X176398134Y-86341500D01*
X173661741Y-86341500D01*
X173642031Y-86339949D01*
X173638950Y-86339461D01*
X173620848Y-86336594D01*
X173574859Y-86340941D01*
X173563004Y-86341500D01*
X171180224Y-86341500D01*
X171112103Y-86321498D01*
X171106163Y-86317436D01*
X171101872Y-86314318D01*
X170956752Y-86208882D01*
X170950724Y-86206198D01*
X170950722Y-86206197D01*
X170788319Y-86133891D01*
X170788318Y-86133891D01*
X170782288Y-86131206D01*
X170688888Y-86111353D01*
X170601944Y-86092872D01*
X170601939Y-86092872D01*
X170595487Y-86091500D01*
X170404513Y-86091500D01*
X170398061Y-86092872D01*
X170398056Y-86092872D01*
X170311112Y-86111353D01*
X170217712Y-86131206D01*
X170211682Y-86133891D01*
X170211681Y-86133891D01*
X170049278Y-86206197D01*
X170049276Y-86206198D01*
X170043248Y-86208882D01*
X169898129Y-86314318D01*
X169893837Y-86317436D01*
X169826969Y-86341294D01*
X169819776Y-86341500D01*
X168082056Y-86341500D01*
X168070200Y-86340941D01*
X168070197Y-86340941D01*
X168062463Y-86339212D01*
X168007446Y-86340941D01*
X167991631Y-86341438D01*
X167987673Y-86341500D01*
X167958568Y-86341500D01*
X167954168Y-86342056D01*
X167942336Y-86342988D01*
X167896169Y-86344438D01*
X167875579Y-86350420D01*
X167856218Y-86354430D01*
X167849230Y-86355312D01*
X167842796Y-86356125D01*
X167842795Y-86356125D01*
X167834936Y-86357118D01*
X167827571Y-86360034D01*
X167827567Y-86360035D01*
X167791979Y-86374126D01*
X167780769Y-86377965D01*
X167736400Y-86390855D01*
X167717935Y-86401775D01*
X167700195Y-86410466D01*
X167680244Y-86418365D01*
X167653684Y-86437662D01*
X167642874Y-86445516D01*
X167632952Y-86452033D01*
X167600023Y-86471507D01*
X167600019Y-86471510D01*
X167593193Y-86475547D01*
X167578029Y-86490711D01*
X167562996Y-86503551D01*
X167545643Y-86516159D01*
X167516198Y-86551752D01*
X167508208Y-86560532D01*
X167227395Y-86841345D01*
X167218614Y-86849336D01*
X167211920Y-86853584D01*
X167206494Y-86859362D01*
X167202314Y-86862820D01*
X167137075Y-86890829D01*
X167067051Y-86879121D01*
X167014472Y-86831413D01*
X166996000Y-86765734D01*
X166996000Y-86712928D01*
X166993761Y-86691346D01*
X166985919Y-86615765D01*
X166985918Y-86615761D01*
X166985207Y-86608907D01*
X166963341Y-86543365D01*
X166932472Y-86450841D01*
X166930154Y-86443893D01*
X166838616Y-86295969D01*
X166823562Y-86280941D01*
X166720684Y-86178242D01*
X166720679Y-86178238D01*
X166715503Y-86173071D01*
X166567420Y-86081791D01*
X166402309Y-86027026D01*
X166395473Y-86026326D01*
X166395470Y-86026325D01*
X166343974Y-86021049D01*
X166299572Y-86016500D01*
X165700428Y-86016500D01*
X165697182Y-86016837D01*
X165697178Y-86016837D01*
X165603265Y-86026581D01*
X165603261Y-86026582D01*
X165596407Y-86027293D01*
X165589871Y-86029474D01*
X165589869Y-86029474D01*
X165522408Y-86051981D01*
X165431393Y-86082346D01*
X165283469Y-86173884D01*
X165278296Y-86179066D01*
X165176753Y-86280786D01*
X165114470Y-86314865D01*
X165043650Y-86309862D01*
X164998563Y-86280941D01*
X164895688Y-86178246D01*
X164895683Y-86178242D01*
X164890503Y-86173071D01*
X164742420Y-86081791D01*
X164577309Y-86027026D01*
X164570473Y-86026326D01*
X164570470Y-86026325D01*
X164518974Y-86021049D01*
X164474572Y-86016500D01*
X163875428Y-86016500D01*
X163872182Y-86016837D01*
X163872178Y-86016837D01*
X163778265Y-86026581D01*
X163778261Y-86026582D01*
X163771407Y-86027293D01*
X163764871Y-86029474D01*
X163764869Y-86029474D01*
X163697408Y-86051981D01*
X163606393Y-86082346D01*
X163458469Y-86173884D01*
X163338074Y-86294489D01*
X163338072Y-86294491D01*
X163335571Y-86296997D01*
X163335142Y-86296569D01*
X163281420Y-86334656D01*
X163240458Y-86341500D01*
X163082060Y-86341500D01*
X163070203Y-86340941D01*
X163062463Y-86339211D01*
X163054538Y-86339460D01*
X163054537Y-86339460D01*
X162991599Y-86341438D01*
X162987641Y-86341500D01*
X162958568Y-86341500D01*
X162954634Y-86341997D01*
X162954632Y-86341997D01*
X162954189Y-86342053D01*
X162942354Y-86342985D01*
X162909564Y-86344016D01*
X162904089Y-86344188D01*
X162904088Y-86344188D01*
X162896169Y-86344437D01*
X162885963Y-86347402D01*
X162875571Y-86350421D01*
X162856218Y-86354429D01*
X162852743Y-86354868D01*
X162834936Y-86357118D01*
X162827568Y-86360035D01*
X162827565Y-86360036D01*
X162791982Y-86374125D01*
X162780747Y-86377971D01*
X162744016Y-86388642D01*
X162744013Y-86388643D01*
X162736400Y-86390855D01*
X162717935Y-86401775D01*
X162700195Y-86410466D01*
X162680244Y-86418365D01*
X162653684Y-86437662D01*
X162642874Y-86445516D01*
X162632952Y-86452033D01*
X162600023Y-86471507D01*
X162600019Y-86471510D01*
X162593193Y-86475547D01*
X162578029Y-86490711D01*
X162562996Y-86503551D01*
X162545643Y-86516159D01*
X162516198Y-86551752D01*
X162508208Y-86560532D01*
X161592395Y-87476345D01*
X161583615Y-87484335D01*
X161583613Y-87484337D01*
X161576920Y-87488584D01*
X161571494Y-87494362D01*
X161571493Y-87494363D01*
X161528396Y-87540257D01*
X161525641Y-87543099D01*
X161505073Y-87563667D01*
X161502356Y-87567170D01*
X161494648Y-87576195D01*
X161463028Y-87609867D01*
X161459207Y-87616818D01*
X161459206Y-87616819D01*
X161452697Y-87628658D01*
X161441843Y-87645182D01*
X161437004Y-87651421D01*
X161428696Y-87662132D01*
X161425549Y-87669404D01*
X161425548Y-87669406D01*
X161410346Y-87704535D01*
X161405124Y-87715195D01*
X161402915Y-87719214D01*
X161382876Y-87755663D01*
X161377541Y-87776441D01*
X161371142Y-87795131D01*
X161362620Y-87814824D01*
X161361380Y-87822655D01*
X161355394Y-87860448D01*
X161352987Y-87872071D01*
X161341500Y-87916812D01*
X161341500Y-87938259D01*
X161339949Y-87957969D01*
X161336594Y-87979152D01*
X156508000Y-87979152D01*
X156508000Y-82806266D01*
X186837276Y-82806266D01*
X186837613Y-82812782D01*
X186847351Y-82906632D01*
X186850244Y-82920028D01*
X186900764Y-83071453D01*
X186906929Y-83084615D01*
X186990702Y-83219992D01*
X186999736Y-83231390D01*
X187112405Y-83343863D01*
X187123816Y-83352875D01*
X187259339Y-83436412D01*
X187272517Y-83442556D01*
X187424042Y-83492815D01*
X187437408Y-83495681D01*
X187530046Y-83505172D01*
X187536461Y-83505500D01*
X187560661Y-83505500D01*
X187575900Y-83501025D01*
X187577105Y-83499635D01*
X187578776Y-83491952D01*
X187578776Y-82794615D01*
X187574301Y-82779376D01*
X187572911Y-82778171D01*
X187565228Y-82776500D01*
X186855391Y-82776500D01*
X186840152Y-82780975D01*
X186838947Y-82782365D01*
X186837276Y-82790048D01*
X186837276Y-82806266D01*
X156508000Y-82806266D01*
X156508000Y-82250385D01*
X186837276Y-82250385D01*
X186841751Y-82265624D01*
X186843141Y-82266829D01*
X186850824Y-82268500D01*
X187560661Y-82268500D01*
X187575900Y-82264025D01*
X187577105Y-82262635D01*
X187578776Y-82254952D01*
X187578776Y-81557615D01*
X187574301Y-81542376D01*
X187572911Y-81541171D01*
X187565228Y-81539500D01*
X187536510Y-81539500D01*
X187529994Y-81539837D01*
X187436144Y-81549575D01*
X187422748Y-81552468D01*
X187271323Y-81602988D01*
X187258161Y-81609153D01*
X187122784Y-81692926D01*
X187111386Y-81701960D01*
X186998913Y-81814629D01*
X186989901Y-81826040D01*
X186906364Y-81961563D01*
X186900220Y-81974741D01*
X186849961Y-82126266D01*
X186847095Y-82139632D01*
X186837604Y-82232270D01*
X186837276Y-82238685D01*
X186837276Y-82250385D01*
X156508000Y-82250385D01*
X156508000Y-79639558D01*
X156528002Y-79571437D01*
X156581658Y-79524944D01*
X156651932Y-79514840D01*
X156714822Y-79542895D01*
X156813675Y-79625549D01*
X156813682Y-79625554D01*
X156816969Y-79628302D01*
X156820595Y-79630577D01*
X156820597Y-79630578D01*
X156870703Y-79662009D01*
X157048901Y-79773792D01*
X157052803Y-79775554D01*
X157052807Y-79775556D01*
X157294520Y-79884694D01*
X157294524Y-79884696D01*
X157298432Y-79886460D01*
X157302551Y-79887680D01*
X157556832Y-79963002D01*
X157556837Y-79963003D01*
X157560945Y-79964220D01*
X157565179Y-79964868D01*
X157565184Y-79964869D01*
X157827340Y-80004984D01*
X157827342Y-80004984D01*
X157831582Y-80005633D01*
X157970913Y-80007822D01*
X158101045Y-80009867D01*
X158101051Y-80009867D01*
X158105336Y-80009934D01*
X158377141Y-79977042D01*
X158641967Y-79907566D01*
X158894914Y-79802792D01*
X159131301Y-79664658D01*
X159346754Y-79495722D01*
X159391539Y-79449508D01*
X159534303Y-79302186D01*
X159537286Y-79299108D01*
X159539819Y-79295660D01*
X159539823Y-79295655D01*
X159696834Y-79081909D01*
X159699372Y-79078454D01*
X159701418Y-79074686D01*
X159827962Y-78841621D01*
X159827963Y-78841619D01*
X159830012Y-78837845D01*
X159926789Y-78581732D01*
X159987912Y-78314854D01*
X160000031Y-78179075D01*
X160012031Y-78044616D01*
X160012251Y-78042151D01*
X160012692Y-78000000D01*
X160010964Y-77974653D01*
X159994362Y-77731123D01*
X159994361Y-77731117D01*
X159994070Y-77726846D01*
X159938550Y-77458747D01*
X159847157Y-77200664D01*
X159839277Y-77185395D01*
X159723550Y-76961178D01*
X159723549Y-76961177D01*
X159721585Y-76957371D01*
X159719122Y-76953866D01*
X159566619Y-76736877D01*
X159566614Y-76736871D01*
X159564155Y-76733372D01*
X159551516Y-76719771D01*
X159519797Y-76656254D01*
X159527453Y-76585672D01*
X159572053Y-76530433D01*
X159643816Y-76508000D01*
X195354760Y-76508000D01*
X195422881Y-76528002D01*
G37*
%TD.AperFunction*%
%TD*%
M02*
